<?xml version="1.0" encoding="UTF-8"?>
<!DOCTYPE svg PUBLIC "-//W3C//DTD SVG 1.1//EN" "http://www.w3.org/Graphics/SVG/1.1/DTD/svg11.dtd">
<svg xmlns="http://www.w3.org/2000/svg" version="1.1" width="700px" height="771px" style="shape-rendering:geometricPrecision; text-rendering:geometricPrecision; image-rendering:optimizeQuality; fill-rule:evenodd; clip-rule:evenodd" xmlns:xlink="http://www.w3.org/1999/xlink">
<g><path style="opacity:0.946" fill="#3c6468" d="M 175.5,-0.5 C 291.5,-0.5 407.5,-0.5 523.5,-0.5C 523.5,12.8333 523.5,26.1667 523.5,39.5C 407.5,39.5 291.5,39.5 175.5,39.5C 175.5,26.1667 175.5,12.8333 175.5,-0.5 Z"/></g>
<g><path style="opacity:0.912" fill="#3c6468" d="M 213.5,61.5 C 304.167,61.5 394.833,61.5 485.5,61.5C 485.5,75.5 485.5,89.5 485.5,103.5C 394.833,103.5 304.167,103.5 213.5,103.5C 213.5,89.5 213.5,75.5 213.5,61.5 Z"/></g>
<g><path style="opacity:0.96" fill="#3c6468" d="M 142.5,125.5 C 280.5,125.5 418.5,125.5 556.5,125.5C 556.168,233.07 556.501,340.57 557.5,448C 556.892,448.87 556.059,449.37 555,449.5C 521.609,437.587 494.276,445.92 473,474.5C 463.803,491.384 461.136,509.384 465,528.5C 467.331,541.508 471.998,553.508 479,564.5C 494.301,586.06 515.134,594.893 541.5,591C 546.354,588.9 551.354,587.4 556.5,586.5C 556.5,593.167 556.5,599.833 556.5,606.5C 524.165,606.333 491.832,606.5 459.5,607C 454.071,607.7 448.905,609.2 444,611.5C 438.703,609.403 433.203,607.903 427.5,607C 375.5,606.333 323.5,606.333 271.5,607C 265.797,607.903 260.297,609.403 255,611.5C 250.095,609.2 244.929,607.7 239.5,607C 207.168,606.5 174.835,606.333 142.5,606.5C 142.421,599.789 142.421,593.289 142.5,587C 183.689,599.828 212.522,586.328 229,546.5C 235.211,529.269 236.877,511.603 234,493.5C 221.136,456.65 195.303,440.483 156.5,445C 152.333,446.326 148.167,447.826 144,449.5C 142.831,448.991 141.998,448.158 141.5,447C 142.499,339.904 142.832,232.737 142.5,125.5 Z M 236.5,192.5 C 243.5,192.5 250.5,192.5 257.5,192.5C 257.178,205.413 257.511,218.246 258.5,231C 250.833,231.667 243.167,231.667 235.5,231C 236.489,218.246 236.822,205.413 236.5,192.5 Z M 338.5,192.5 C 345.833,192.5 353.167,192.5 360.5,192.5C 360.5,205.5 360.5,218.5 360.5,231.5C 353.167,231.5 345.833,231.5 338.5,231.5C 338.5,218.5 338.5,205.5 338.5,192.5 Z M 441.5,192.5 C 448.5,192.5 455.5,192.5 462.5,192.5C 462.178,205.413 462.511,218.246 463.5,231C 455.833,231.667 448.167,231.667 440.5,231C 441.489,218.246 441.822,205.413 441.5,192.5 Z M 235.5,273.5 C 242.989,272.344 250.655,272.178 258.5,273C 257.167,286 257.167,299 258.5,312C 250.833,312.667 243.167,312.667 235.5,312C 236.83,299.069 236.83,286.235 235.5,273.5 Z M 338.5,272.5 C 345.833,272.5 353.167,272.5 360.5,272.5C 360.5,285.833 360.5,299.167 360.5,312.5C 353.167,312.5 345.833,312.5 338.5,312.5C 338.5,299.167 338.5,285.833 338.5,272.5 Z M 440.5,273.5 C 447.989,272.344 455.655,272.178 463.5,273C 462.167,286 462.167,299 463.5,312C 455.833,312.667 448.167,312.667 440.5,312C 441.83,299.069 441.83,286.235 440.5,273.5 Z M 236.5,352.5 C 243.5,352.5 250.5,352.5 257.5,352.5C 257.177,365.746 257.511,378.913 258.5,392C 258,392.5 257.5,393 257,393.5C 249.913,392.685 242.747,392.185 235.5,392C 236.462,378.703 236.795,365.537 236.5,352.5 Z M 338.5,352.5 C 345.833,352.5 353.167,352.5 360.5,352.5C 360.667,366.171 360.5,379.837 360,393.5C 353,392.167 346,392.167 339,393.5C 338.5,379.837 338.333,366.171 338.5,352.5 Z M 441.5,352.5 C 449.008,352.038 456.342,352.538 463.5,354C 462.167,366.667 462.167,379.333 463.5,392C 456.253,392.185 449.087,392.685 442,393.5C 441.5,393 441,392.5 440.5,392C 441.489,378.913 441.823,365.746 441.5,352.5 Z M 338.5,422.5 C 385.066,420.581 413.566,442.248 424,487.5C 426.005,516.819 418.672,543.486 402,567.5C 383.25,589.306 359.75,597.139 331.5,591C 309.151,582.651 293.317,567.484 284,545.5C 275.617,523.73 273.284,501.397 277,478.5C 286.334,447.323 306.834,428.656 338.5,422.5 Z"/></g>
<g><path style="opacity:0.948" fill="#3c6468" d="M -0.5,211.5 C 39.5,211.5 79.5,211.5 119.5,211.5C 119.667,297.501 119.5,383.501 119,469.5C 109.803,481.463 105.303,494.963 105.5,510C 105.38,528.167 109.88,545 119,560.5C 119.5,575.83 119.667,591.163 119.5,606.5C 87.1071,604.443 62.9405,617.443 47,645.5C 45.0375,650.42 43.3708,655.42 42,660.5C 41.8218,671.743 41.3218,682.91 40.5,694C 26.8374,694.5 13.1707,694.667 -0.5,694.5C -0.5,533.5 -0.5,372.5 -0.5,211.5 Z M 48.5,312.5 C 56.1739,312.334 63.8406,312.5 71.5,313C 70.1667,326 70.1667,339 71.5,352C 63.8406,352.5 56.1739,352.666 48.5,352.5C 48.5,339.167 48.5,325.833 48.5,312.5 Z M 48.5,392.5 C 56.1739,392.334 63.8406,392.5 71.5,393C 70.1667,406 70.1667,419 71.5,432C 63.5,432.667 55.5,432.667 47.5,432C 48.4894,418.913 48.8227,405.746 48.5,392.5 Z M 48.5,473.5 C 56.1739,473.334 63.8406,473.5 71.5,474C 70.5109,486.754 70.1776,499.587 70.5,512.5C 63.1667,512.5 55.8333,512.5 48.5,512.5C 48.5,499.5 48.5,486.5 48.5,473.5 Z M 48.5,553.5 C 55.6669,554.817 62.8335,554.817 70,553.5C 70.4999,566.829 70.6666,580.163 70.5,593.5C 63.1667,593.5 55.8333,593.5 48.5,593.5C 48.5,580.167 48.5,566.833 48.5,553.5 Z"/></g>
<g><path style="opacity:0.948" fill="#3c6468" d="M 699.5,211.5 C 699.5,372.167 699.5,532.833 699.5,693.5C 685.5,693.5 671.5,693.5 657.5,693.5C 663.293,657.621 650.627,630.787 619.5,613C 606.764,607.555 593.431,605.388 579.5,606.5C 579.333,591.163 579.5,575.83 580,560.5C 592.418,539.506 596.418,516.839 592,492.5C 589.702,483.936 585.702,476.27 580,469.5C 579.5,383.501 579.333,297.501 579.5,211.5C 619.5,211.5 659.5,211.5 699.5,211.5 Z M 649.5,311.5 C 650.496,324.99 650.829,338.656 650.5,352.5C 643.167,352.5 635.833,352.5 628.5,352.5C 628.823,339.254 628.489,326.087 627.5,313C 635.011,312.829 642.345,312.329 649.5,311.5 Z M 627.5,393.5 C 635.323,392.344 643.323,392.177 651.5,393C 650.167,406 650.167,419 651.5,432C 643.5,432.667 635.5,432.667 627.5,432C 628.83,419.069 628.83,406.235 627.5,393.5 Z M 627.5,474.5 C 635.323,473.344 643.323,473.177 651.5,474C 650.511,486.754 650.178,499.587 650.5,512.5C 643.167,512.5 635.833,512.5 628.5,512.5C 628.829,499.656 628.495,486.989 627.5,474.5 Z M 628.5,553.5 C 635.697,554.784 642.864,554.784 650,553.5C 650.5,566.829 650.667,580.163 650.5,593.5C 643.167,593.5 635.833,593.5 628.5,593.5C 628.5,580.167 628.5,566.833 628.5,553.5 Z"/></g>
<g><path style="opacity:0.944" fill="#3c6468" d="M 342.5,444.5 C 372.166,443.076 391.666,456.409 401,484.5C 405.027,512.778 397.861,537.611 379.5,559C 355.985,576.965 334.151,575.132 314,553.5C 297.354,529.545 293.02,503.545 301,475.5C 310.142,458.699 323.975,448.366 342.5,444.5 Z"/></g>
<g><path style="opacity:0.93" fill="#3c6468" d="M 165.5,465.5 C 188.259,465.778 203.759,476.444 212,497.5C 215.583,518.694 211.25,538.027 199,555.5C 179.36,575.808 160.027,575.474 141,554.5C 128.803,535.648 125.136,515.315 130,493.5C 137.317,478.278 149.151,468.945 165.5,465.5 Z"/></g>
<g><path style="opacity:0.93" fill="#3c6468" d="M 523.5,465.5 C 547.536,465.43 563.369,476.763 571,499.5C 573.278,519.451 568.945,537.784 558,554.5C 538.973,575.474 519.64,575.808 500,555.5C 487.752,538.041 483.418,518.708 487,497.5C 493.463,480.197 505.63,469.53 523.5,465.5 Z"/></g>
<g><path style="opacity:0.946" fill="#3c6468" d="M 220.5,627.5 C 221.5,627.5 222.5,627.5 223.5,627.5C 224.034,631.478 222.534,634.478 219,636.5C 215.735,641.367 212.735,646.367 210,651.5C 208.042,657.082 206.376,662.748 205,668.5C 204.5,696.498 204.333,724.498 204.5,752.5C 160.832,752.667 117.165,752.5 73.5,752C 67.5318,749.892 64.0318,745.725 63,739.5C 62.3333,716.167 62.3333,692.833 63,669.5C 66.3689,648.795 78.2023,635.628 98.5,630C 139.307,628.874 179.973,628.041 220.5,627.5 Z"/></g>
<g><path style="opacity:0.946" fill="#3c6468" d="M 475.5,627.5 C 517.154,628.029 558.821,628.862 600.5,630C 620.342,635.506 632.175,648.34 636,668.5C 636.667,692.5 636.667,716.5 636,740.5C 634.598,746.236 631.098,750.069 625.5,752C 581.835,752.5 538.168,752.667 494.5,752.5C 494.667,724.498 494.5,696.498 494,668.5C 491.181,654.862 485.181,642.862 476,632.5C 475.506,630.866 475.34,629.199 475.5,627.5 Z"/></g>
<g><path style="opacity:0.95" fill="#3c6468" d="M 314.5,770.5 C 287.833,770.5 261.167,770.5 234.5,770.5C 231.141,767.603 228.641,763.936 227,759.5C 226.333,730.5 226.333,701.5 227,672.5C 233.521,646.645 250.021,632.145 276.5,629C 289.496,628.5 302.496,628.333 315.5,628.5C 315.806,636.567 318.639,643.567 324,649.5C 324.167,650.667 324.333,651.833 324.5,653C 318.214,687.129 312.214,721.296 306.5,755.5C 306.282,760.957 308.615,764.957 313.5,767.5C 314.386,768.325 314.719,769.325 314.5,770.5 Z"/></g>
<g><path style="opacity:0.53" fill="#3c6468" d="M 338.5,628.5 C 345.833,628.5 353.167,628.5 360.5,628.5C 361.437,632.73 359.771,635.23 355.5,636C 353.232,637.558 352.066,639.724 352,642.5C 347.953,644.469 345.953,643.136 346,638.5C 344.019,636.343 341.686,634.676 339,633.5C 338.506,631.866 338.34,630.199 338.5,628.5 Z"/></g>
<g><path style="opacity:0.951" fill="#3c6468" d="M 464.5,770.5 C 437.833,770.5 411.167,770.5 384.5,770.5C 386.003,767.476 388.17,764.81 391,762.5C 392.022,760.298 392.522,757.965 392.5,755.5C 386.786,721.287 380.786,687.12 374.5,653C 374.667,651.833 374.833,650.667 375,649.5C 380.606,643.695 383.44,636.695 383.5,628.5C 396.504,628.333 409.504,628.5 422.5,629C 448.979,632.145 465.479,646.645 472,672.5C 472.667,701.5 472.667,730.5 472,759.5C 470.359,763.936 467.859,767.603 464.5,770.5 Z"/></g>
<g><path style="opacity:0.833" fill="#3c6468" d="M 348.5,646.5 C 349.822,646.33 350.989,646.663 352,647.5C 357.456,681.683 363.289,715.85 369.5,750C 369.415,751.107 369.081,752.107 368.5,753C 362.283,758.058 355.95,762.891 349.5,767.5C 343.05,762.891 336.717,758.058 330.5,753C 329.919,752.107 329.585,751.107 329.5,750C 335.343,715.213 341.676,680.713 348.5,646.5 Z"/></g>
</svg>
