<?xml version="1.0" encoding="UTF-8"?>
<!DOCTYPE svg PUBLIC "-//W3C//DTD SVG 1.1//EN" "http://www.w3.org/Graphics/SVG/1.1/DTD/svg11.dtd">
<svg xmlns="http://www.w3.org/2000/svg" version="1.1" width="700px" height="700px" style="shape-rendering:geometricPrecision; text-rendering:geometricPrecision; image-rendering:optimizeQuality; fill-rule:evenodd; clip-rule:evenodd" xmlns:xlink="http://www.w3.org/1999/xlink">
<g><path style="opacity:0.969" fill="#3c6468" d="M 332.5,-0.5 C 343.833,-0.5 355.167,-0.5 366.5,-0.5C 403.591,12.7717 420.758,39.105 418,78.5C 411.509,110.326 392.009,129.826 359.5,137C 330.025,139.511 306.858,128.678 290,104.5C 272.791,70.2424 277.958,39.909 305.5,13.5C 314.012,7.67859 323.012,3.01192 332.5,-0.5 Z"/></g>
<g><path style="opacity:0.953" fill="#3c6468" d="M 245.5,176.5 C 273.5,176.5 301.5,176.5 329.5,176.5C 329.5,214.833 329.5,253.167 329.5,291.5C 311.821,291.833 294.154,291.5 276.5,290.5C 275.174,277.304 275.174,264.137 276.5,251C 263.5,250.333 250.5,250.333 237.5,251C 238.833,264.333 238.833,277.667 237.5,291C 219.836,291.5 202.17,291.667 184.5,291.5C 184.333,273.164 184.5,254.83 185,236.5C 190.428,211.459 204.595,193.292 227.5,182C 233.666,180.219 239.666,178.385 245.5,176.5 Z"/></g>
<g><path style="opacity:0.957" fill="#3c6468" d="M 369.5,176.5 C 397.502,176.333 425.502,176.5 453.5,177C 485.908,184.241 505.908,204.075 513.5,236.5C 514.5,254.821 514.833,273.155 514.5,291.5C 496.5,291.5 478.5,291.5 460.5,291.5C 460.5,277.833 460.5,264.167 460.5,250.5C 447.833,250.5 435.167,250.5 422.5,250.5C 422.5,264.167 422.5,277.833 422.5,291.5C 404.833,291.5 387.167,291.5 369.5,291.5C 369.5,253.167 369.5,214.833 369.5,176.5 Z"/></g>
<g><path style="opacity:0.963" fill="#3c6468" d="M 455.5,483.5 C 445.764,436.928 417.764,407.762 371.5,396C 321.611,388.454 282.944,405.621 255.5,447.5C 253.536,451.956 251.369,456.289 249,460.5C 247.169,465.835 245.669,471.169 244.5,476.5C 236.404,510.355 243.404,541.688 265.5,570.5C 232.167,571.833 198.833,571.833 165.5,570.5C 191.729,534.519 196.229,495.853 179,454.5C 157.946,415.299 125.112,395.299 80.5,394.5C 80.5,372.833 80.5,351.167 80.5,329.5C 259.5,329.333 438.5,329.5 617.5,330C 618.66,351.094 618.826,372.26 618,393.5C 565.244,396.259 530.244,422.592 513,472.5C 504.295,508.658 511.129,541.325 533.5,570.5C 500.167,571.833 466.833,571.833 433.5,570.5C 453.032,544.487 460.365,515.487 455.5,483.5 Z"/></g>
<g><path style="opacity:0.967" fill="#3c6468" d="M 73.5,432.5 C 106.306,430.8 130.139,444.467 145,473.5C 158.343,514.152 146.51,544.986 109.5,566C 69.6178,578.919 39.1178,567.419 18,531.5C 4.22314,494.406 13.3898,464.573 45.5,442C 54.603,437.689 63.9364,434.522 73.5,432.5 Z"/></g>
<g><path style="opacity:0.967" fill="#3c6468" d="M 341.5,432.5 C 375.162,431.072 399.328,445.406 414,475.5C 426.257,515.719 414.09,545.886 377.5,566C 351.552,575.592 327.552,572.258 305.5,556C 280.256,532.776 273.756,504.943 286,472.5C 298.077,449.879 316.577,436.545 341.5,432.5 Z"/></g>
<g><path style="opacity:0.966" fill="#3c6468" d="M 672.5,459.5 C 687.867,481.446 690.701,505.113 681,530.5C 662.952,563.439 635.452,576.272 598.5,569C 563.009,555.86 546.176,530.36 548,492.5C 557.702,451.573 583.536,431.74 625.5,433C 644.796,435.642 660.463,444.475 672.5,459.5 Z"/></g>
<g><path style="opacity:0.004" fill="#3c6468" d="M 672.5,458.5 C 673.833,459.167 673.833,459.167 672.5,458.5 Z"/></g>
<g><path style="opacity:0.004" fill="#3c6468" d="M 244.5,476.5 C 245.833,477.167 245.833,477.167 244.5,476.5 Z"/></g>
<g><path style="opacity:0.004" fill="#3c6468" d="M 455.5,483.5 C 454.833,484.167 454.833,484.167 455.5,483.5 Z"/></g>
<g><path style="opacity:0.967" fill="#3c6468" d="M -0.5,609.5 C 56.501,609.333 113.501,609.5 170.5,610C 170.833,610.333 171.167,610.667 171.5,611C 151.195,636.991 142.528,666.491 145.5,699.5C 96.8333,699.5 48.1667,699.5 -0.5,699.5C -0.5,669.5 -0.5,639.5 -0.5,609.5 Z"/></g>
<g><path style="opacity:0.975" fill="#3c6468" d="M 514.5,699.5 C 404.5,699.5 294.5,699.5 184.5,699.5C 180.094,657.798 197.094,628.965 235.5,613C 241.167,612 246.833,611 252.5,610C 316.833,609.333 381.167,609.333 445.5,610C 482.135,614.64 504.969,634.807 514,670.5C 514.5,680.161 514.666,689.828 514.5,699.5 Z"/></g>
<g><path style="opacity:0.966" fill="#3c6468" d="M 699.5,609.5 C 699.5,639.5 699.5,669.5 699.5,699.5C 650.833,699.5 602.167,699.5 553.5,699.5C 555.593,670.096 548.76,643.096 533,618.5C 529.63,616.326 527.797,613.326 527.5,609.5C 584.833,609.5 642.167,609.5 699.5,609.5 Z"/></g>
</svg>
