<?xml version="1.0" encoding="UTF-8"?>
<!DOCTYPE svg PUBLIC "-//W3C//DTD SVG 1.1//EN" "http://www.w3.org/Graphics/SVG/1.1/DTD/svg11.dtd">
<svg xmlns="http://www.w3.org/2000/svg" version="1.1" width="700px" height="700px" style="shape-rendering:geometricPrecision; text-rendering:geometricPrecision; image-rendering:optimizeQuality; fill-rule:evenodd; clip-rule:evenodd" xmlns:xlink="http://www.w3.org/1999/xlink">
<g><path style="opacity:0.963" fill="#3c6468" d="M 309.5,-0.5 C 320.167,-0.5 330.833,-0.5 341.5,-0.5C 341.006,117.89 341.506,236.223 343,354.5C 425.014,436.68 507.18,518.68 589.5,600.5C 590.466,602.396 590.799,604.396 590.5,606.5C 589.448,606.351 588.448,606.517 587.5,607C 530.579,658.623 463.912,689.457 387.5,699.5C 362.167,699.5 336.833,699.5 311.5,699.5C 210.782,685.287 129.282,637.954 67,557.5C 30.3277,506.485 7.82771,449.818 -0.5,387.5C -0.5,362.167 -0.5,336.833 -0.5,311.5C 19.3341,179.463 89.6674,84.6295 210.5,27C 241.647,14.1662 273.981,5.49951 307.5,1C 308.416,0.721579 309.082,0.221579 309.5,-0.5 Z M 197.5,101.5 C 213.917,99.4594 225.75,105.793 233,120.5C 238.336,140.999 231.169,154.832 211.5,162C 183.715,163.216 171.549,150.05 175,122.5C 178.831,111.501 186.331,104.501 197.5,101.5 Z M 196.5,172.5 C 243.621,173.46 269.287,197.293 273.5,244C 273,244.5 272.5,245 272,245.5C 227,244.167 182,244.167 137,245.5C 135.251,219.144 145.418,198.311 167.5,183C 176.821,178.33 186.488,174.83 196.5,172.5 Z M 119.5,275.5 C 133.925,272.628 145.425,276.961 154,288.5C 162.539,304.467 159.706,318.633 145.5,331C 132.817,338.705 120.484,338.205 108.5,329.5C 97.9894,319.322 94.9894,307.156 99.5,293C 104.221,284.769 110.888,278.935 119.5,275.5 Z M 117.5,346.5 C 166.55,345.388 192.883,369.222 196.5,418C 150.833,418.667 105.167,418.667 59.5,418C 61.0761,379.604 80.4095,355.771 117.5,346.5 Z M 228.5,436.5 C 249.949,435.702 261.949,445.869 264.5,467C 260.653,491.161 246.653,500.828 222.5,496C 208.118,489.079 201.618,477.579 203,461.5C 205.958,447.71 214.458,439.377 228.5,436.5 Z M 388.5,492.5 C 412.997,493.494 424.164,506.16 422,530.5C 417.357,545.139 407.357,553.139 392,554.5C 368.293,550.751 358.627,537.084 363,513.5C 365.115,506.432 369.282,500.932 375.5,497C 379.75,494.856 384.083,493.356 388.5,492.5 Z M 220.5,508.5 C 262.475,505.012 289.308,523.345 301,563.5C 301.499,568.823 301.666,574.156 301.5,579.5C 256.167,579.5 210.833,579.5 165.5,579.5C 166.295,542.059 184.628,518.392 220.5,508.5 Z M 379.5,564.5 C 414.427,560.957 439.761,574.79 455.5,606C 458.621,615.378 460.288,624.878 460.5,634.5C 414.838,635.5 369.172,635.833 323.5,635.5C 325.211,598.154 343.878,574.487 379.5,564.5 Z"/></g>
<g><path style="opacity:0.944" fill="#3c6468" d="M 357.5,-0.5 C 368.167,-0.5 378.833,-0.5 389.5,-0.5C 493.887,14.9362 577.053,65.2695 639,150.5C 671.512,199.208 691.679,252.541 699.5,310.5C 699.5,320.833 699.5,331.167 699.5,341.5C 585.833,341.667 472.166,341.5 358.5,341C 357.501,227.237 357.168,113.404 357.5,-0.5 Z M 441.5,81.5 C 465.605,78.7808 478.105,89.4474 479,113.5C 475.88,129.047 466.38,137.381 450.5,138.5C 428.987,135.473 419.82,123.139 423,101.5C 426.264,92.0719 432.431,85.4052 441.5,81.5 Z M 440.5,148.5 C 473.741,145.858 497.241,159.524 511,189.5C 513.313,198.006 514.48,206.673 514.5,215.5C 471.833,215.5 429.167,215.5 386.5,215.5C 387.208,179.134 405.208,156.8 440.5,148.5 Z M 570.5,165.5 C 590.86,164.368 602.193,173.868 604.5,194C 603.667,212.167 594.167,221.667 576,222.5C 562.612,222.45 553.612,216.117 549,203.5C 545.063,184.359 552.23,171.692 570.5,165.5 Z M 569.5,232.5 C 599.596,231.126 621.429,243.793 635,270.5C 638.312,279.891 640.145,289.558 640.5,299.5C 597.5,299.5 554.5,299.5 511.5,299.5C 513.733,262.272 533.067,239.939 569.5,232.5 Z"/></g>
<g><path style="opacity:0.941" fill="#3c6468" d="M 699.5,357.5 C 699.5,367.833 699.5,378.167 699.5,388.5C 688.852,466.12 657.352,533.453 605,590.5C 603.775,590.138 602.609,589.638 601.5,589C 525.639,512.806 449.473,436.973 373,361.5C 372.51,360.207 372.343,358.873 372.5,357.5C 481.5,357.5 590.5,357.5 699.5,357.5 Z M 574.5,376.5 C 596.553,377.824 604.72,389.157 599,410.5C 589.377,423.752 577.544,426.085 563.5,417.5C 554.448,407.744 553.281,397.078 560,385.5C 564.102,381.046 568.935,378.046 574.5,376.5 Z M 576.5,430.5 C 610.006,433.672 628.006,452.005 630.5,485.5C 595.833,485.5 561.167,485.5 526.5,485.5C 528.247,453.426 544.913,435.093 576.5,430.5 Z"/></g>
</svg>
