<?xml version="1.0" encoding="UTF-8"?>
<!DOCTYPE svg PUBLIC "-//W3C//DTD SVG 1.1//EN" "http://www.w3.org/Graphics/SVG/1.1/DTD/svg11.dtd">
<svg xmlns="http://www.w3.org/2000/svg" version="1.1" width="700px" height="605px" style="shape-rendering:geometricPrecision; text-rendering:geometricPrecision; image-rendering:optimizeQuality; fill-rule:evenodd; clip-rule:evenodd" xmlns:xlink="http://www.w3.org/1999/xlink">
<g><path style="opacity:0.883" fill="#3c6468" d="M 9.5,-0.5 C 236.167,-0.5 462.833,-0.5 689.5,-0.5C 689.573,3.65754 691.573,6.32421 695.5,7.5C 696.386,8.32496 696.719,9.32496 696.5,10.5C 697.5,10.5 698.5,10.5 699.5,10.5C 699.5,172.833 699.5,335.167 699.5,497.5C 698.5,497.5 697.5,497.5 696.5,497.5C 696.78,500.388 695.447,501.888 692.5,502C 691.686,505.075 689.686,506.742 686.5,507C 685.257,508.154 684.257,509.488 683.5,511C 678.333,511.919 673.666,513.919 669.5,517C 630.5,517.167 591.5,517.333 552.5,517.5C 378.167,516.787 203.834,516.62 29.5,517C 25.3341,513.919 20.6675,511.919 15.5,511C 14.1941,507.861 11.8607,506.028 8.5,505.5C 7.95978,504.252 7.29311,503.085 6.5,502C 4.0671,500.87 1.73376,499.704 -0.5,498.5C -0.5,335.833 -0.5,173.167 -0.5,10.5C 0.5,10.5 1.5,10.5 2.5,10.5C 2.28099,9.32496 2.61432,8.32496 3.5,7.5C 7.42704,6.32421 9.42704,3.65754 9.5,-0.5 Z M 35.5,30.5 C 244.873,30.1678 454.207,30.5011 663.5,31.5C 664.318,33.1083 664.985,34.7749 665.5,36.5C 664.339,153.834 664.172,271.168 665,388.5C 454.903,389.666 244.736,389.833 34.5,389C 34.8268,271.749 34.4935,154.415 33.5,37C 34.096,34.7752 34.7626,32.6085 35.5,30.5 Z M 344.5,432.5 C 348.637,432.146 352.637,432.646 356.5,434C 357.977,436.148 359.977,437.482 362.5,438C 363.987,440.485 365.821,442.652 368,444.5C 368.667,450.5 368.667,456.5 368,462.5C 364.376,466.574 360.21,470.074 355.5,473C 351.5,475 347.5,475 343.5,473C 338.83,470.084 334.664,466.584 331,462.5C 330.333,456.5 330.333,450.5 331,444.5C 333.179,442.652 335.013,440.485 336.5,438C 339.599,436.724 342.266,434.89 344.5,432.5 Z"/></g>
<g><path style="opacity:0.805" fill="#3c6468" d="M 149.5,58.5 C 157.166,59.2055 164.833,60.0389 172.5,61C 176.055,64.6079 180.388,66.2746 185.5,66C 187.418,69.4623 190.418,71.1289 194.5,71C 195.257,72.5122 196.257,73.8455 197.5,75C 200.933,77.3627 204.266,79.8627 207.5,82.5C 208.069,85.2367 209.736,86.7367 212.5,87C 213.389,90.3759 215.555,92.5426 219,93.5C 219.36,95.6079 220.027,97.6079 221,99.5C 223.815,104.263 226.815,108.93 230,113.5C 230.333,116.833 230.667,120.167 231,123.5C 232.829,125.156 234.163,127.156 235,129.5C 235.831,136.856 235.665,144.189 234.5,151.5C 233.059,152.865 231.726,154.365 230.5,156C 200.833,156.667 171.167,156.667 141.5,156C 139.237,154.016 137.07,151.849 135,149.5C 134.333,121.833 134.333,94.1667 135,66.5C 136.659,65.1832 137.826,63.5165 138.5,61.5C 142.213,60.2223 145.88,59.2223 149.5,58.5 Z"/></g>
<g><path style="opacity:0.602" fill="#3c6468" d="M 418.5,59.5 C 422.514,59.3345 426.514,59.5012 430.5,60C 434.499,64.9053 438.333,69.7386 442,74.5C 443.11,76.0368 444.61,76.7035 446.5,76.5C 446.626,79.4678 448.126,81.4678 451,82.5C 458.629,94.49 467.629,105.157 478,114.5C 483.672,122.664 489.505,130.664 495.5,138.5C 498.467,139.415 500.3,141.415 501,144.5C 506.123,148.096 510.123,152.763 513,158.5C 517.13,161.605 520.296,160.772 522.5,156C 526.105,156.334 528.439,154.834 529.5,151.5C 533.746,148.732 538.08,146.232 542.5,144C 543.257,142.488 544.257,141.154 545.5,140C 549.218,137.303 553.218,134.97 557.5,133C 558.987,130.263 561.321,128.597 564.5,128C 568.122,125.002 571.788,122.002 575.5,119C 576.833,118.667 578.167,118.333 579.5,118C 583.181,114.839 586.847,111.506 590.5,108C 593.944,107.889 596.277,106.223 597.5,103C 602.167,102.333 606.833,102.333 611.5,103C 612.343,105.838 614.177,107.671 617,108.5C 617.667,111.833 617.667,115.167 617,118.5C 614.453,119.473 612.953,121.307 612.5,124C 610.444,124.311 608.444,124.811 606.5,125.5C 602.986,128.433 599.653,131.6 596.5,135C 594.782,135.346 593.115,135.846 591.5,136.5C 588.159,139.245 584.826,142.078 581.5,145C 577.717,145.554 575.05,147.554 573.5,151C 572.167,151.333 570.833,151.667 569.5,152C 566.316,155.171 562.983,158.171 559.5,161C 555.298,161.263 552.298,163.263 550.5,167C 546.759,169.732 542.759,172.066 538.5,174C 537.501,176.761 535.501,178.094 532.5,178C 529.023,181.567 525.356,184.9 521.5,188C 516.581,188.802 511.748,188.635 507,187.5C 506.737,184.736 505.237,183.069 502.5,182.5C 497.169,175.539 491.336,168.872 485,162.5C 481.506,156.945 477.84,151.611 474,146.5C 465.433,139.235 458.1,130.569 452,120.5C 445.582,113.392 438.916,106.392 432,99.5C 429.565,96.0665 427.565,92.3998 426,88.5C 422.629,86.7249 420.462,87.7249 419.5,91.5C 418.624,92.2508 417.624,92.7508 416.5,93C 391.993,117.838 366.993,142.504 341.5,167C 335.831,168.755 330.164,168.588 324.5,166.5C 321.203,161.719 319.869,156.386 320.5,150.5C 321.873,150.657 323.207,150.49 324.5,150C 355.148,119.526 386.482,89.3592 418.5,59.5 Z"/></g>
<g><path style="opacity:0.82" fill="#3c6468" d="M 121.5,60.5 C 124.5,60.5 127.5,60.5 130.5,60.5C 129.426,90.4902 129.26,120.49 130,150.5C 132.472,152.298 134.139,154.632 135,157.5C 136.319,159.487 138.152,160.654 140.5,161C 170.5,161.333 200.5,161.667 230.5,162C 231.529,167.459 231.363,172.959 230,178.5C 226.312,181.217 224.312,184.884 224,189.5C 221.072,191.418 219.406,194.085 219,197.5C 215.667,198.167 213.667,200.167 213,203.5C 209.651,207.016 206.151,210.349 202.5,213.5C 198.796,214.369 196.129,216.536 194.5,220C 190.732,220.382 187.732,222.049 185.5,225C 181.083,225.134 177.416,226.801 174.5,230C 165.633,230.574 156.8,231.408 148,232.5C 139.2,231.408 130.367,230.574 121.5,230C 114.628,227.077 107.961,223.744 101.5,220C 96.7244,216.253 92.0577,212.419 87.5,208.5C 82.9839,202.048 77.8173,196.382 72,191.5C 71.6222,188.588 71.1222,185.588 70.5,182.5C 68.549,182.773 67.049,182.107 66,180.5C 66.4809,174.718 64.8142,169.718 61,165.5C 59,152.167 59,138.833 61,125.5C 64.8169,121.321 66.4835,116.321 66,110.5C 70.0115,108.492 72.0115,105.159 72,100.5C 74.4397,98.7257 76.1064,96.3924 77,93.5C 83.2584,88.3644 89.0918,82.6977 94.5,76.5C 97.8647,75.9676 100.198,74.1342 101.5,71C 106.513,68.03 111.846,65.6966 117.5,64C 118.731,62.5952 120.064,61.4286 121.5,60.5 Z"/></g>
<g><path style="opacity:0.819" fill="#3c6468" d="M 408.5,141.5 C 418.839,141.334 429.172,141.5 439.5,142C 443,143.167 446.5,144.333 450,145.5C 451.52,146.697 452.687,148.197 453.5,150C 455.101,150.273 456.601,150.773 458,151.5C 458.5,218.499 458.667,285.499 458.5,352.5C 457.325,352.281 456.325,352.614 455.5,353.5C 454.872,355.258 453.872,356.758 452.5,358C 449.638,358.93 447.305,360.597 445.5,363C 431.167,363.667 416.833,363.667 402.5,363C 400.702,360.528 398.368,358.861 395.5,358C 394.54,356.581 393.707,355.081 393,353.5C 391.324,352.939 389.991,351.939 389,350.5C 388.333,285.833 388.333,221.167 389,156.5C 388.469,152.252 390.303,149.918 394.5,149.5C 395.04,148.252 395.707,147.085 396.5,146C 400.704,144.769 404.704,143.269 408.5,141.5 Z"/></g>
<g><path style="opacity:0.815" fill="#3c6468" d="M 585.5,171.5 C 597.838,171.333 610.171,171.5 622.5,172C 624.303,172.637 625.636,173.803 626.5,175.5C 630.833,175.67 633.5,177.837 634.5,182C 635.793,182.49 637.127,182.657 638.5,182.5C 639.813,239.183 639.813,295.85 638.5,352.5C 637.325,352.281 636.325,352.614 635.5,353.5C 634.872,355.258 633.872,356.758 632.5,358C 629.638,358.93 627.305,360.597 625.5,363C 611.167,363.667 596.833,363.667 582.5,363C 580.695,360.597 578.362,358.93 575.5,358C 574.128,356.758 573.128,355.258 572.5,353.5C 571.675,352.614 570.675,352.281 569.5,352.5C 569.5,295.833 569.5,239.167 569.5,182.5C 570.873,182.657 572.207,182.49 573.5,182C 574.5,180.333 575.5,178.667 576.5,177C 580.53,176.661 583.53,174.827 585.5,171.5 Z"/></g>
<g><path style="opacity:0.807" fill="#3c6468" d="M 315.5,218.5 C 329.018,218.251 342.518,218.584 356,219.5C 357.5,219.833 359,220.167 360.5,220.5C 362.954,223.248 365.454,225.915 368,228.5C 368.5,269.832 368.667,311.165 368.5,352.5C 367.325,352.281 366.325,352.614 365.5,353.5C 364.872,355.258 363.872,356.758 362.5,358C 359.638,358.93 357.305,360.597 355.5,363C 341.167,363.667 326.833,363.667 312.5,363C 307.353,359.847 302.853,356.014 299,351.5C 298.333,311.167 298.333,270.833 299,230.5C 301.237,226.479 304.07,222.979 307.5,220C 310.365,219.817 313.031,219.317 315.5,218.5 Z"/></g>
<g><path style="opacity:0.808" fill="#3c6468" d="M 496.5,218.5 C 511.2,218.172 525.867,218.672 540.5,220C 542.901,222.943 545.401,225.777 548,228.5C 548.5,269.832 548.667,311.165 548.5,352.5C 547.325,352.281 546.325,352.614 545.5,353.5C 544.872,355.258 543.872,356.758 542.5,358C 539.638,358.93 537.305,360.597 535.5,363C 521.167,363.667 506.833,363.667 492.5,363C 487.33,359.82 482.83,355.987 479,351.5C 478.333,311.5 478.333,271.5 479,231.5C 479.471,229.754 480.138,228.087 481,226.5C 483.833,225 486,222.833 487.5,220C 490.695,219.819 493.695,219.319 496.5,218.5 Z"/></g>
<g><path style="opacity:0.515" fill="#3c6468" d="M 71.5,251.5 C 122.168,251.333 172.834,251.5 223.5,252C 227.024,254.512 230.858,256.346 235,257.5C 235.667,262.5 235.667,267.5 235,272.5C 231.363,273.459 228.197,275.292 225.5,278C 173.5,278.667 121.5,278.667 69.5,278C 67.4783,274.466 64.4783,272.966 60.5,273.5C 59.7092,267.873 59.7092,262.206 60.5,256.5C 65.0882,256.704 68.7549,255.037 71.5,251.5 Z"/></g>
<g><path style="opacity:0.518" fill="#3c6468" d="M 73.5,294.5 C 122.931,294.388 172.265,294.555 221.5,295C 225.968,296.987 230.468,298.82 235,300.5C 235.499,305.489 235.666,310.489 235.5,315.5C 232.033,315.446 229.366,316.946 227.5,320C 226.167,320.333 224.833,320.667 223.5,321C 172.833,321.667 122.167,321.667 71.5,321C 68.0036,318.698 64.337,316.531 60.5,314.5C 59.4076,309.455 59.7409,304.455 61.5,299.5C 65.9142,298.591 69.9142,296.924 73.5,294.5 Z"/></g>
<g><path style="opacity:0.581" fill="#3c6468" d="M 71.5,339.5 C 121.834,339.333 172.168,339.5 222.5,340C 226.45,340.462 230.284,341.296 234,342.5C 235.339,347.736 235.839,353.07 235.5,358.5C 232.01,358.151 229.677,359.651 228.5,363C 174.833,363.667 121.167,363.667 67.5,363C 65.2633,360.423 62.7633,358.256 60,356.5C 59.5042,351.792 59.8376,347.125 61,342.5C 64.61,341.552 68.11,340.552 71.5,339.5 Z"/></g>
<g><path style="opacity:0.471" fill="#3c6468" d="M 345.5,437.5 C 350.582,436.446 354.582,437.946 357.5,442C 359.101,442.273 360.601,442.773 362,443.5C 363.83,450.13 363.997,456.796 362.5,463.5C 359.009,463.483 356.342,464.983 354.5,468C 348.805,469.656 344.138,468.323 340.5,464C 339.207,463.51 337.873,463.343 336.5,463.5C 335.003,456.796 335.17,450.13 337,443.5C 340.796,442.872 343.629,440.872 345.5,437.5 Z"/></g>
<g><path style="opacity:0.899" fill="#3c6468" d="M 511.5,604.5 C 403.5,604.5 295.5,604.5 187.5,604.5C 188.226,600.729 186.893,598.063 183.5,596.5C 182.338,591.533 182.171,586.533 183,581.5C 186.667,580.179 188.334,577.513 188,573.5C 190.735,571.268 192.902,568.601 194.5,565.5C 199.741,561.2 205.408,557.366 211.5,554C 217.017,553.916 222.351,552.916 227.5,551C 238.236,550.66 248.903,550.494 259.5,550.5C 259.833,549.833 260.167,549.167 260.5,548.5C 258.444,540.179 258.277,531.846 260,523.5C 261.734,522.751 263.567,522.251 265.5,522C 321.833,521.333 378.167,521.333 434.5,522C 436.676,522.163 438.509,522.996 440,524.5C 440.968,532.777 440.468,540.944 438.5,549C 438.833,549.5 439.167,550 439.5,550.5C 450.103,550.526 460.769,550.693 471.5,551C 476.649,552.916 481.983,553.916 487.5,554C 493.592,557.366 499.259,561.2 504.5,565.5C 506.129,568.626 508.295,571.293 511,573.5C 511.662,575.813 512.162,578.146 512.5,580.5C 513.822,580.33 514.989,580.663 516,581.5C 516.499,586.489 516.666,591.489 516.5,596.5C 515.178,596.33 514.011,596.663 513,597.5C 511.798,599.677 511.298,602.011 511.5,604.5 Z"/></g>
</svg>
