<?xml version="1.0" encoding="UTF-8"?>
<!DOCTYPE svg PUBLIC "-//W3C//DTD SVG 1.1//EN" "http://www.w3.org/Graphics/SVG/1.1/DTD/svg11.dtd">
<svg xmlns="http://www.w3.org/2000/svg" version="1.1" width="700px" height="643px" style="shape-rendering:geometricPrecision; text-rendering:geometricPrecision; image-rendering:optimizeQuality; fill-rule:evenodd; clip-rule:evenodd" xmlns:xlink="http://www.w3.org/1999/xlink">
<g><path style="opacity:0.879" fill="#3c6468" d="M 593.5,-0.5 C 596.833,-0.5 600.167,-0.5 603.5,-0.5C 605.242,0.957306 607.242,2.12397 609.5,3C 629.222,8.79612 648.889,14.7961 668.5,21C 676.062,25.1909 678.562,31.3576 676,39.5C 665.348,60.1353 654.682,80.802 644,101.5C 636.603,113.511 627.936,114.511 618,104.5C 616.105,100.148 616.105,95.8151 618,91.5C 623.27,81.9637 627.937,72.2971 632,62.5C 626.642,65.5152 621.142,68.3485 615.5,71C 424.222,154.01 233.222,237.344 42.5,321C 31.5806,324.236 24.5806,320.403 21.5,309.5C 22.7369,301.761 27.0703,296.594 34.5,294C 231.506,208.058 428.506,122.225 625.5,36.5C 615.215,33.0149 604.882,29.8482 594.5,27C 581.505,18.1981 581.171,9.03146 593.5,-0.5 Z"/></g>
<g><path style="opacity:0.848" fill="#3c6468" d="M 562.5,140.5 C 572.839,140.334 583.172,140.5 593.5,141C 601.735,144.597 604.569,150.763 602,159.5C 600.167,162.667 597.667,165.167 594.5,167C 589.467,167.171 584.467,167.671 579.5,168.5C 582.694,180.446 578.361,188.113 566.5,191.5C 559.647,190.147 555.147,186.147 553,179.5C 552.072,168.76 552.405,158.093 554,147.5C 556.464,144.519 559.297,142.186 562.5,140.5 Z"/></g>
<g><path style="opacity:0.841" fill="#3c6468" d="M 624.5,140.5 C 634.839,140.334 645.172,140.5 655.5,141C 659.275,142.442 662.108,144.942 664,148.5C 665.592,158.759 665.926,169.093 665,179.5C 662.723,185.905 658.223,189.905 651.5,191.5C 639.653,187.817 634.986,179.817 637.5,167.5C 628.745,169.404 621.579,167.071 616,160.5C 612.728,151.133 615.561,144.466 624.5,140.5 Z"/></g>
<g><path style="opacity:0.966" fill="#3c6468" d="M 699.5,566.5 C 699.5,589.5 699.5,612.5 699.5,635.5C 696.808,637.862 694.141,640.196 691.5,642.5C 463.5,642.5 235.5,642.5 7.5,642.5C 4.8587,640.196 2.19204,637.862 -0.5,635.5C -0.5,612.5 -0.5,589.5 -0.5,566.5C 2.32648,563.585 5.65981,561.418 9.5,560C 17.997,559.97 26.3303,559.303 34.5,558C 33.3356,493.904 33.1689,429.737 34,365.5C 35.3498,360.815 38.1832,357.315 42.5,355C 74.1667,354.333 105.833,354.333 137.5,355C 140.295,356.793 142.795,358.96 145,361.5C 146.153,394.787 146.653,428.121 146.5,461.5C 146.497,493.874 146.163,526.208 145.5,558.5C 164.488,559.5 183.488,559.833 202.5,559.5C 202.333,468.166 202.5,376.833 203,285.5C 205.414,281.411 208.914,278.911 213.5,278C 243.167,277.333 272.833,277.333 302.5,278C 308.127,278.957 311.96,282.124 314,287.5C 314.5,378.166 314.667,468.833 314.5,559.5C 332.833,559.5 351.167,559.5 369.5,559.5C 369.333,443.5 369.5,327.5 370,211.5C 371.859,206.974 375.026,203.808 379.5,202C 410.5,201.333 441.5,201.333 472.5,202C 476.26,203.461 479.093,205.961 481,209.5C 481.5,326.166 481.667,442.833 481.5,559.5C 505.509,559.833 529.509,559.5 553.5,558.5C 550.625,547.056 554.958,540.389 566.5,538.5C 575.464,539.636 580.13,544.803 580.5,554C 580.397,555.561 580.063,557.061 579.5,558.5C 598.822,559.5 618.155,559.833 637.5,559.5C 635.496,544.676 641.83,537.842 656.5,539C 660.817,541.315 663.65,544.815 665,549.5C 665.314,552.865 665.481,556.031 665.5,559C 673.5,559.333 681.5,559.667 689.5,560C 693.34,561.418 696.674,563.585 699.5,566.5 Z"/></g>
<g><path style="opacity:0.832" fill="#3c6468" d="M 563.5,204.5 C 572.184,204.248 577.684,208.248 580,216.5C 580.667,231.5 580.667,246.5 580,261.5C 577.031,272.386 570.198,275.886 559.5,272C 556.09,269.606 553.923,266.439 553,262.5C 552.333,246.833 552.333,231.167 553,215.5C 554.994,210.34 558.494,206.674 563.5,204.5 Z"/></g>
<g><path style="opacity:0.828" fill="#3c6468" d="M 648.5,204.5 C 656.51,204.335 662.01,208.002 665,215.5C 665.667,231.5 665.667,247.5 665,263.5C 660.906,272.757 654.073,275.591 644.5,272C 641.608,270.109 639.441,267.609 638,264.5C 637.333,247.833 637.333,231.167 638,214.5C 640.081,209.584 643.581,206.25 648.5,204.5 Z"/></g>
<g><path style="opacity:0.832" fill="#3c6468" d="M 561.5,288.5 C 570.716,287.187 576.883,290.853 580,299.5C 580.667,314.833 580.667,330.167 580,345.5C 577.109,355.346 570.609,358.846 560.5,356C 556.51,354.01 554.01,350.843 553,346.5C 552.333,330.833 552.333,315.167 553,299.5C 554.515,294.818 557.348,291.152 561.5,288.5 Z"/></g>
<g><path style="opacity:0.83" fill="#3c6468" d="M 646.5,288.5 C 655.668,287.166 661.834,290.832 665,299.5C 665.667,315.167 665.667,330.833 665,346.5C 661.613,355.86 655.113,359.026 645.5,356C 641.942,354.108 639.442,351.275 638,347.5C 637.333,330.833 637.333,314.167 638,297.5C 640.362,293.973 643.196,290.973 646.5,288.5 Z"/></g>
<g><path style="opacity:0.829" fill="#3c6468" d="M 562.5,371.5 C 571.904,370.443 577.737,374.443 580,383.5C 580.667,398.5 580.667,413.5 580,428.5C 576.838,438.998 570.005,442.498 559.5,439C 556.131,436.635 553.964,433.468 553,429.5C 552.333,413.833 552.333,398.167 553,382.5C 554.563,377.438 557.729,373.772 562.5,371.5 Z"/></g>
<g><path style="opacity:0.826" fill="#3c6468" d="M 647.5,371.5 C 656.342,370.499 662.175,374.166 665,382.5C 665.667,398.167 665.667,413.833 665,429.5C 661.274,439.193 654.44,442.359 644.5,439C 641.96,436.795 639.793,434.295 638,431.5C 637.333,414.5 637.333,397.5 638,380.5C 640.406,376.592 643.572,373.592 647.5,371.5 Z"/></g>
<g><path style="opacity:0.83" fill="#3c6468" d="M 565.5,454.5 C 571.344,454.834 575.844,457.5 579,462.5C 580.108,471.442 580.608,480.442 580.5,489.5C 580.608,498.558 580.108,507.558 579,516.5C 570.667,527.167 562.333,527.167 554,516.5C 552.876,507.738 552.376,498.905 552.5,490C 552.39,480.776 552.89,471.609 554,462.5C 556.862,458.174 560.695,455.508 565.5,454.5 Z"/></g>
<g><path style="opacity:0.828" fill="#3c6468" d="M 650.5,454.5 C 657.468,455.296 662.302,458.963 665,465.5C 665.167,473.333 665.333,481.167 665.5,489C 665.624,497.905 665.124,506.738 664,515.5C 659.404,523.603 652.904,525.77 644.5,522C 641.616,520.116 639.449,517.616 638,514.5C 637.333,497.833 637.333,481.167 638,464.5C 640.487,458.865 644.654,455.532 650.5,454.5 Z"/></g>
</svg>
