<?xml version="1.0" encoding="UTF-8"?>
<!DOCTYPE svg PUBLIC "-//W3C//DTD SVG 1.1//EN" "http://www.w3.org/Graphics/SVG/1.1/DTD/svg11.dtd">
<svg xmlns="http://www.w3.org/2000/svg" version="1.1" width="700px" height="644px" style="shape-rendering:geometricPrecision; text-rendering:geometricPrecision; image-rendering:optimizeQuality; fill-rule:evenodd; clip-rule:evenodd" xmlns:xlink="http://www.w3.org/1999/xlink">
<g><path style="opacity:0.828" fill="#3b6369" d="M 340.5,-0.5 C 411.833,-0.5 483.167,-0.5 554.5,-0.5C 554.843,1.22516 555.843,1.72516 557.5,1C 556.584,0.721579 555.918,0.221579 555.5,-0.5C 584.833,-0.5 614.167,-0.5 643.5,-0.5C 643.665,2.51838 643.498,5.51838 643,8.5C 641.294,12.0788 639.461,15.5788 637.5,19C 630.133,19.8208 622.8,20.8208 615.5,22C 611.944,24.8894 607.944,26.8894 603.5,28C 596.792,28.2886 590.125,28.9552 583.5,30C 580.638,30.9305 578.305,32.5971 576.5,35C 570.589,36.4638 564.589,37.4638 558.5,38C 555.228,39.6078 552.228,41.6078 549.5,44C 539.634,44.0462 530.634,46.7129 522.5,52C 516.857,52.8643 511.19,53.531 505.5,54C 501.663,55.1727 498.329,57.1727 495.5,60C 489.854,61.0653 484.187,62.0653 478.5,63C 475.146,65.0318 471.813,67.0318 468.5,69C 461.484,69.5013 454.484,70.168 447.5,71C 443.986,72.3567 441.319,74.69 439.5,78C 436.953,78.0674 434.786,78.9007 433,80.5C 434.468,210.452 434.968,340.452 434.5,470.5C 432.015,471.74 432.015,472.74 434.5,473.5C 434.667,505.168 434.5,536.835 434,568.5C 433.798,570.256 433.298,571.922 432.5,573.5C 402.167,574.833 371.833,574.833 341.5,573.5C 340.5,382.168 340.167,190.834 340.5,-0.5 Z"/></g>
<g><path style="opacity:0.149" fill="#3b6368" d="M 554.5,-0.5 C 554.833,-0.5 555.167,-0.5 555.5,-0.5C 555.918,0.221579 556.584,0.721579 557.5,1C 555.843,1.72516 554.843,1.22516 554.5,-0.5 Z"/></g>
<g><path style="opacity:0.921" fill="#3b6369" d="M 699.5,4.5 C 699.5,197.167 699.5,389.833 699.5,582.5C 694.156,582.334 688.823,582.501 683.5,583C 679.319,584.513 675.652,586.846 672.5,590C 661.933,589.723 652.266,592.39 643.5,598C 637.126,598.311 630.793,598.977 624.5,600C 621.268,601.23 618.601,603.23 616.5,606C 611.215,607.026 605.882,607.693 600.5,608C 595.807,610.379 591.14,612.713 586.5,615C 580.833,615.333 575.167,615.667 569.5,616C 564.876,617.31 560.876,619.644 557.5,623C 551.751,623.148 546.085,623.814 540.5,625C 537.243,626.262 534.577,628.262 532.5,631C 525.148,631.463 517.815,632.13 510.5,633C 504.863,634.466 501.53,637.966 500.5,643.5C 480.5,643.5 460.5,643.5 440.5,643.5C 441.32,458.175 441.82,272.841 442,87.5C 444.135,85.6333 445.635,83.3 446.5,80.5C 452.576,78.1711 458.909,77.0044 465.5,77C 469.4,75.4349 473.066,73.4349 476.5,71C 483.193,70.131 489.86,69.131 496.5,68C 500.167,66 503.833,64 507.5,62C 513.27,61.5384 518.937,60.5384 524.5,59C 526.208,56.9565 528.208,55.2899 530.5,54C 537.179,53.4534 543.845,52.7868 550.5,52C 554.464,51.0193 557.797,49.0193 560.5,46C 566.535,45.1307 572.535,44.1307 578.5,43C 580.792,41.7101 582.792,40.0435 584.5,38C 592.5,37 600.5,36 608.5,35C 610.792,33.7101 612.792,32.0435 614.5,30C 620.111,28.7563 625.778,27.7563 631.5,27C 635.11,25.056 638.443,22.7226 641.5,20C 645.833,19.6667 650.167,19.3333 654.5,19C 659.5,16.6667 664.5,14.3333 669.5,12C 675.539,11.6635 681.539,10.9968 687.5,10C 689.833,8.33333 692.167,6.66667 694.5,5C 696.134,4.50649 697.801,4.33982 699.5,4.5 Z M 555.5,298.5 C 555.5,298.833 555.5,299.167 555.5,299.5C 555.338,301.527 555.505,303.527 556,305.5C 562.895,313.508 563.229,321.841 557,330.5C 556.82,333.956 556.153,337.289 555,340.5C 553.601,341.227 552.101,341.727 550.5,342C 549.167,344.333 547.833,346.667 546.5,349C 541.704,349.483 537.704,351.483 534.5,355C 527.698,357.388 520.698,358.054 513.5,357C 508.905,354.08 504.072,351.58 499,349.5C 497.287,347.957 495.787,346.291 494.5,344.5C 494.5,344.167 494.5,343.833 494.5,343.5C 493.152,342.399 491.652,341.399 490,340.5C 488.051,335.91 485.384,331.91 482,328.5C 481.333,322.5 481.333,316.5 482,310.5C 483.763,307.98 485.763,305.647 488,303.5C 486.748,297.087 489.248,293.254 495.5,292C 496.585,289.828 497.919,287.828 499.5,286C 503.833,285 508.167,284 512.5,283C 518.465,277.203 524.465,277.203 530.5,283C 538.479,282.976 544.479,286.31 548.5,293C 552.167,293.169 554.5,295.003 555.5,298.5 Z"/></g>
<g><path style="opacity:0.769" fill="#3b6368" d="M 495.5,8.5 C 499.373,10.1539 499.04,10.6539 494.5,10C 495.056,9.61742 495.389,9.11742 495.5,8.5 Z"/></g>
<g><path style="opacity:0.952" fill="#3b6368" d="M 505.5,10.5 C 506.776,11.3864 506.776,12.3864 505.5,13.5C 504.913,12.7666 504.913,11.7666 505.5,10.5 Z"/></g>
<g><path style="opacity:0.729" fill="#3b6369" d="M 114.5,11.5 C 123.506,11.3336 132.506,11.5002 141.5,12C 144.557,14.7226 147.89,17.056 151.5,19C 157.242,18.2294 161.575,20.2294 164.5,25C 166.881,26.7656 169.548,27.9322 172.5,28.5C 174.234,32.676 177.234,35.3427 181.5,36.5C 183.086,38.6705 184.42,41.0038 185.5,43.5C 187.686,44.2208 189.853,44.8875 192,45.5C 193.59,52.6796 196.756,59.0129 201.5,64.5C 202.793,74.4705 203.793,84.4705 204.5,94.5C 203.188,103.045 202.022,111.712 201,120.5C 200.156,124.27 197.99,126.603 194.5,127.5C 194.149,130.238 193.482,132.904 192.5,135.5C 184.654,143.846 176.654,152.013 168.5,160C 164.886,160.945 161.219,161.612 157.5,162C 153.813,164.364 150.146,166.698 146.5,169C 134.167,169.667 121.833,169.667 109.5,169C 104.044,163.857 97.5444,161.024 90,160.5C 86.3295,157.334 82.4962,154.334 78.5,151.5C 77.5471,147.575 75.2138,144.909 71.5,143.5C 70.5,141.5 69.5,139.5 68.5,137.5C 66.5,136.833 64.5,136.167 62.5,135.5C 61.5178,132.904 60.8511,130.238 60.5,127.5C 59.1779,127.67 58.0113,127.337 57,126.5C 55.6667,123.833 54.3333,121.167 53,118.5C 52.3333,100.167 52.3333,81.8333 53,63.5C 57.0198,58.1965 60.6865,52.5298 64,46.5C 68.3172,44.7237 71.1505,41.5571 72.5,37C 77.3552,35.4804 81.0219,32.4804 83.5,28C 88.3497,27.4147 92.0164,25.0814 94.5,21C 102.401,20.2112 109.067,17.0445 114.5,11.5 Z M 151.5,53.5 C 154.5,53.5 157.5,53.5 160.5,53.5C 162.158,58.8059 160.158,61.8059 154.5,62.5C 152.91,64.6797 151.576,67.013 150.5,69.5C 145.489,72.3558 142.656,76.6892 142,82.5C 140.622,84.2134 138.955,85.5467 137,86.5C 136,88.5 135,90.5 134,92.5C 129.921,93.6295 125.755,93.7961 121.5,93C 119.586,91.5867 118.253,89.7534 117.5,87.5C 113.228,86.3957 110.395,83.729 109,79.5C 107.829,78.1068 106.329,77.2735 104.5,77C 102.183,73.0182 99.1831,69.6849 95.5,67C 99.7096,61.333 104.21,61.1663 109,66.5C 110.059,72.8189 113.559,76.9856 119.5,79C 123.819,79.9046 128.152,80.2379 132.5,80C 134.554,77.5393 136.054,74.7059 137,71.5C 140.544,67.1127 144.544,63.1127 149,59.5C 150.122,57.5932 150.955,55.5932 151.5,53.5 Z"/></g>
<g><path style="opacity:1" fill="#3b6368" d="M 553.5,23.5 C 557.243,23.4592 557.41,24.1259 554,25.5C 553.536,24.9056 553.369,24.2389 553.5,23.5 Z"/></g>
<g><path style="opacity:1" fill="#3b6368" d="M 384.5,26.5 C 386.765,27.9402 386.932,29.6068 385,31.5C 384.506,29.8659 384.34,28.1992 384.5,26.5 Z"/></g>
<g><path style="opacity:1" fill="#3b6368" d="M 127.5,33.5 C 130.15,33.9576 130.65,34.9576 129,36.5C 127.961,35.7562 127.461,34.7562 127.5,33.5 Z"/></g>
<g><path style="opacity:1" fill="#3b6368" d="M 621.5,61.5 C 623.085,62.0024 623.585,63.0024 623,64.5C 621.961,63.7562 621.461,62.7562 621.5,61.5 Z"/></g>
<g><path style="opacity:1" fill="#3b6368" d="M 509.5,104.5 C 511.646,104.696 511.812,105.696 510,107.5C 509.517,106.552 509.351,105.552 509.5,104.5 Z"/></g>
<g><path style="opacity:1" fill="#3b6368" d="M 99.5,112.5 C 100.386,111.224 101.386,111.224 102.5,112.5C 101.767,113.087 100.767,113.087 99.5,112.5 Z"/></g>
<g><path style="opacity:1" fill="#3b6368" d="M 553.5,114.5 C 555.76,115.238 555.927,116.238 554,117.5C 553.517,116.552 553.351,115.552 553.5,114.5 Z"/></g>
<g><path style="opacity:1" fill="#3b6368" d="M 115.5,123.5 C 115.56,122.957 115.893,122.624 116.5,122.5C 117.583,123.365 117.749,124.365 117,125.5C 116.722,124.584 116.222,123.918 115.5,123.5 Z"/></g>
<g><path style="opacity:1" fill="#3b6368" d="M 646.5,122.5 C 647.776,123.386 647.776,124.386 646.5,125.5C 645.913,124.767 645.913,123.767 646.5,122.5 Z"/></g>
<g><path style="opacity:0.217" fill="#3b6368" d="M 430.5,126.5 C 431.776,127.386 431.776,128.386 430.5,129.5C 429.913,128.767 429.913,127.767 430.5,126.5 Z"/></g>
<g><path style="opacity:1" fill="#3b6368" d="M 370.5,132.5 C 371.267,133.172 371.934,134.005 372.5,135C 370.939,135.188 370.272,134.355 370.5,132.5 Z"/></g>
<g><path style="opacity:1" fill="#3b6368" d="M 655.5,133.5 C 656.848,134.527 657.348,135.86 657,137.5C 655.812,136.437 655.312,135.103 655.5,133.5 Z"/></g>
<g><path style="opacity:0.754" fill="#3b6368" d="M 349.5,173.5 C 350.043,173.56 350.376,173.893 350.5,174.5C 349.635,175.583 348.635,175.749 347.5,175C 348.416,174.722 349.082,174.222 349.5,173.5 Z"/></g>
<g><path style="opacity:0.117" fill="#3b6368" d="M 445.5,173.5 C 446.776,174.386 446.776,175.386 445.5,176.5C 444.913,175.767 444.913,174.767 445.5,173.5 Z"/></g>
<g><path style="opacity:1" fill="#3b6368" d="M 641.5,177.5 C 642.473,177.987 643.473,178.487 644.5,179C 642.843,179.725 641.843,179.225 641.5,177.5 Z"/></g>
<g><path style="opacity:1" fill="#3b6368" d="M 674.5,187.5 C 675.043,187.56 675.376,187.893 675.5,188.5C 674.277,189.614 672.944,189.781 671.5,189C 672.737,188.768 673.737,188.268 674.5,187.5 Z"/></g>
<g><path style="opacity:0.612" fill="#3b6369" d="M -0.5,325.5 C -0.5,314.167 -0.5,302.833 -0.5,291.5C 63.1755,290.008 126.842,290.175 190.5,292C 191.416,292.374 192.25,292.874 193,293.5C 194.519,297.676 196.019,301.843 197.5,306C 196.794,308.62 195.794,311.12 194.5,313.5C 194.833,314.5 195.5,315.167 196.5,315.5C 200.348,310.24 204.681,305.407 209.5,301C 215.339,301.256 219.339,298.756 221.5,293.5C 224.865,292.099 228.199,290.599 231.5,289C 232.357,288.311 233.023,287.478 233.5,286.5C 230.002,284.501 227.336,281.667 225.5,278C 220.067,277.94 216.067,275.606 213.5,271C 211.51,269.249 209.177,268.249 206.5,268C 204.833,265.667 203.167,263.333 201.5,261C 199.564,260.187 197.564,259.687 195.5,259.5C 196.002,264.838 196.169,270.172 196,275.5C 190.958,276.84 185.791,277.673 180.5,278C 120.156,278.798 59.8228,278.632 -0.5,277.5C -0.5,266.167 -0.5,254.833 -0.5,243.5C 52.8154,242.688 106.149,242.188 159.5,242C 159.113,231.52 159.613,221.02 161,210.5C 163.069,209.736 165.236,209.236 167.5,209C 172.457,201.845 178.79,200.178 186.5,204C 189.228,206.392 192.228,208.392 195.5,210C 198.076,214.245 201.576,217.412 206,219.5C 206.792,221.587 207.959,223.421 209.5,225C 212.576,225.346 215.576,226.012 218.5,227C 222.812,230.981 226.812,235.314 230.5,240C 232.957,241.562 235.624,242.562 238.5,243C 240.093,247.933 243.426,250.6 248.5,251C 251.09,255.928 255.09,258.928 260.5,260C 262.902,265.069 266.902,267.736 272.5,268C 274.167,270.333 275.833,272.667 277.5,275C 279.473,275.495 281.473,275.662 283.5,275.5C 285.643,284.419 284.31,292.752 279.5,300.5C 273.465,301.027 268.798,303.861 265.5,309C 260.115,309.023 256.448,311.523 254.5,316.5C 249.529,317.637 245.862,320.471 243.5,325C 238.945,326.571 235.278,329.238 232.5,333C 227.09,334.072 223.09,337.072 220.5,342C 215.551,342.968 211.884,345.635 209.5,350C 206.899,350.92 204.232,351.587 201.5,352C 196.673,357.436 191.34,362.436 185.5,367C 181.167,367.667 176.833,367.667 172.5,367C 170.833,364.667 169.167,362.333 167.5,360C 165.236,359.764 163.069,359.264 161,358.5C 159.893,354.112 159.393,349.612 159.5,345C 159.271,339.835 159.938,334.835 161.5,330C 161.241,328.739 160.574,327.739 159.5,327C 106.145,326.816 52.8114,326.316 -0.5,325.5 Z"/></g>
<g><path style="opacity:1" fill="#3b6368" d="M 499.5,205.5 C 500.849,204.203 502.182,204.37 503.5,206C 502.181,206.195 500.847,206.028 499.5,205.5 Z"/></g>
<g><path style="opacity:1" fill="#3b6368" d="M 477.5,226.5 C 477.56,225.957 477.893,225.624 478.5,225.5C 479.583,226.365 479.749,227.365 479,228.5C 478.722,227.584 478.222,226.918 477.5,226.5 Z"/></g>
<g><path style="opacity:1" fill="#3b6368" d="M 676.5,228.5 C 678.975,228.747 678.975,229.413 676.5,230.5C 675.537,230.03 675.537,229.363 676.5,228.5 Z"/></g>
<g><path style="opacity:1" fill="#3b6368" d="M 672.5,231.5 C 674.975,231.747 674.975,232.413 672.5,233.5C 671.537,233.03 671.537,232.363 672.5,231.5 Z"/></g>
<g><path style="opacity:0.899" fill="#3b6368" d="M 208.5,251.5 C 210.085,252.002 210.585,253.002 210,254.5C 208.961,253.756 208.461,252.756 208.5,251.5 Z"/></g>
<g><path style="opacity:1" fill="#3b6368" d="M 398.5,261.5 C 399.573,262.251 399.74,263.251 399,264.5C 397.272,263.648 397.105,262.648 398.5,261.5 Z"/></g>
<g><path style="opacity:0.973" fill="#3b6368" d="M 502.5,267.5 C 504.76,268.238 504.927,269.238 503,270.5C 502.517,269.552 502.351,268.552 502.5,267.5 Z"/></g>
<g><path style="opacity:1" fill="#3b6368" d="M 690.5,267.5 C 692.085,268.002 692.585,269.002 692,270.5C 690.961,269.756 690.461,268.756 690.5,267.5 Z"/></g>
<g><path style="opacity:0.172" fill="#3b6368" d="M 514.5,276.5 C 515.497,275.287 516.497,275.454 517.5,277C 516.423,277.47 515.423,277.303 514.5,276.5 Z"/></g>
<g><path style="opacity:0.572" fill="#3b6369" d="M 518.5,288.5 C 525.384,289.436 532.05,291.269 538.5,294C 540.737,297.869 543.903,300.702 548,302.5C 548.813,304.436 549.313,306.436 549.5,308.5C 551.144,308.286 552.644,308.62 554,309.5C 554.667,314.833 554.667,320.167 554,325.5C 552.989,326.337 551.822,326.67 550.5,326.5C 550.66,328.199 550.494,329.866 550,331.5C 547.894,333.377 546.561,335.71 546,338.5C 540.873,340.981 536.373,344.314 532.5,348.5C 525.551,350.894 518.551,351.06 511.5,349C 508.444,344.768 504.444,341.935 499.5,340.5C 498.833,338.833 498.167,337.167 497.5,335.5C 495.5,334.167 493.5,332.833 491.5,331.5C 488.031,321.605 488.864,312.272 494,303.5C 497.799,300.703 501.299,297.536 504.5,294C 509.265,292.155 513.932,290.321 518.5,288.5 Z"/></g>
<g><path style="opacity:0.571" fill="#3b6368" d="M 92.5,296.5 C 94.9752,296.747 94.9752,297.413 92.5,298.5C 91.537,298.03 91.537,297.363 92.5,296.5 Z"/></g>
<g><path style="opacity:0.098" fill="#3b6368" d="M 555.5,299.5 C 555.5,299.167 555.5,298.833 555.5,298.5C 556.675,298.281 557.675,298.614 558.5,299.5C 557.767,300.087 556.767,300.087 555.5,299.5 Z"/></g>
<g><path style="opacity:0.878" fill="#3b6368" d="M 63.5,299.5 C 64.0431,299.56 64.3764,299.893 64.5,300.5C 63.635,301.583 62.635,301.749 61.5,301C 62.4158,300.722 63.0825,300.222 63.5,299.5 Z"/></g>
<g><path style="opacity:1" fill="#3b6368" d="M 531.5,313.5 C 532.249,314.531 532.915,315.698 533.5,317C 533.167,317.167 532.833,317.333 532.5,317.5C 531.571,316.311 531.238,314.978 531.5,313.5 Z"/></g>
<g><path style="opacity:0.261" fill="#3b6368" d="M 109.5,322.5 C 110.497,321.287 111.497,321.454 112.5,323C 111.423,323.47 110.423,323.303 109.5,322.5 Z"/></g>
<g><path style="opacity:0.035" fill="#3b6368" d="M 494.5,343.5 C 494.5,343.833 494.5,344.167 494.5,344.5C 493.923,345.773 493.257,345.773 492.5,344.5C 492.957,343.702 493.624,343.369 494.5,343.5 Z"/></g>
<g><path style="opacity:0.593" fill="#3b6369" d="M 133.5,474.5 C 134.087,473.233 134.087,472.233 133.5,471.5C 132.614,472.325 132.281,473.325 132.5,474.5C 126.158,474.334 119.825,474.5 113.5,475C 112.978,475.561 112.645,476.228 112.5,477C 115.36,487.048 114.693,496.882 110.5,506.5C 109.624,507.251 108.624,507.751 107.5,508C 101.518,508.999 95.5184,509.332 89.5,509C 87.3921,508.64 85.3921,507.973 83.5,507C 81.1961,502.35 77.5294,499.683 72.5,499C 70.8333,496.667 69.1667,494.333 67.5,492C 65.444,491.689 63.444,491.189 61.5,490.5C 58.733,485.948 54.733,483.115 49.5,482C 47.8535,477.187 44.5202,474.354 39.5,473.5C 38.0764,467.742 34.4097,465.076 28.5,465.5C 25.7224,461.611 22.0558,458.945 17.5,457.5C 15.6917,453.19 12.5251,450.523 8,449.5C 6.00015,446.318 3.16682,444.651 -0.5,444.5C -0.5,433.5 -0.5,422.5 -0.5,411.5C 3.32184,409.927 7.32184,408.427 11.5,407C 13.9634,405.079 15.9634,402.746 17.5,400C 22.211,398.982 25.8777,396.482 28.5,392.5C 31.0698,391.366 33.7365,390.532 36.5,390C 38.1667,387.667 39.8333,385.333 41.5,383C 46.4016,382.048 50.0683,379.381 52.5,375C 58.2696,375.371 62.1029,372.871 64,367.5C 68.8448,365.993 72.5114,362.993 75,358.5C 77.9181,357.917 80.7514,357.084 83.5,356C 85.2893,353.721 87.2893,351.721 89.5,350C 95.6339,349.1 101.634,349.6 107.5,351.5C 112.845,358.169 115.178,365.835 114.5,374.5C 114.333,376.833 114.167,379.167 114,381.5C 111.356,384.338 111.19,387.172 113.5,390C 168.212,390.017 222.878,390.683 277.5,392C 284.722,399.214 286.389,407.547 282.5,417C 281.234,417.309 280.067,417.809 279,418.5C 278.14,422.027 275.973,424.193 272.5,425C 211.167,425.667 149.833,425.667 88.5,425C 84.4436,422.953 80.9436,420.119 78,416.5C 77.2334,412.442 77.4001,408.442 78.5,404.5C 78.1924,403.692 77.6924,403.025 77,402.5C 75.3409,403.817 74.1743,405.483 73.5,407.5C 70.4662,408.567 67.4662,409.734 64.5,411C 62.9822,415.27 59.9822,417.936 55.5,419C 53.7866,420.378 52.4533,422.045 51.5,424C 48.4245,424.346 45.4245,425.012 42.5,426C 39.967,427.916 39.967,429.916 42.5,432C 45.2321,432.413 47.8987,433.08 50.5,434C 52.4511,437.787 55.4511,440.287 59.5,441.5C 60.8034,443.937 62.4701,446.104 64.5,448C 67.2889,448.241 69.9556,448.908 72.5,450C 73.3052,451.972 74.6385,453.472 76.5,454.5C 77.3275,450.204 77.8275,445.871 78,441.5C 80.405,440.726 82.905,440.226 85.5,440C 87.527,437.973 89.527,435.973 91.5,434C 150.833,433.333 210.167,433.333 269.5,434C 271.976,435.309 273.976,437.142 275.5,439.5C 278.027,440.214 280.527,440.88 283,441.5C 283.667,449.167 283.667,456.833 283,464.5C 276.51,467.494 270.01,470.661 263.5,474C 220.168,474.5 176.835,474.667 133.5,474.5 Z"/></g>
<g><path style="opacity:1" fill="#3b6368" d="M 600.5,352.5 C 603.137,354.154 602.803,354.654 599.5,354C 600.056,353.617 600.389,353.117 600.5,352.5 Z"/></g>
<g><path style="opacity:0.35" fill="#3b6368" d="M 448.5,354.5 C 449.267,355.172 449.934,356.005 450.5,357C 448.939,357.188 448.272,356.355 448.5,354.5 Z"/></g>
<g><path style="opacity:0.993" fill="#3b6368" d="M 494.5,365.5 C 496.975,365.747 496.975,366.413 494.5,367.5C 493.537,367.03 493.537,366.363 494.5,365.5 Z"/></g>
<g><path style="opacity:1" fill="#3b6368" d="M 557.5,402.5 C 557.56,401.957 557.893,401.624 558.5,401.5C 559.583,402.365 559.749,403.365 559,404.5C 558.722,403.584 558.222,402.918 557.5,402.5 Z"/></g>
<g><path style="opacity:1" fill="#3b6368" d="M 571.5,405.5 C 573.76,406.238 573.927,407.238 572,408.5C 571.517,407.552 571.351,406.552 571.5,405.5 Z"/></g>
<g><path style="opacity:0.969" fill="#3b6368" d="M 244.5,410.5 C 246.975,410.747 246.975,411.413 244.5,412.5C 243.537,412.03 243.537,411.363 244.5,410.5 Z"/></g>
<g><path style="opacity:0.93" fill="#3b6368" d="M 214.5,411.5 C 215.043,411.56 215.376,411.893 215.5,412.5C 214.635,413.583 213.635,413.749 212.5,413C 213.416,412.722 214.082,412.222 214.5,411.5 Z"/></g>
<g><path style="opacity:0.884" fill="#3b6368" d="M 218.5,413.5 C 218.56,412.957 218.893,412.624 219.5,412.5C 220.583,413.365 220.749,414.365 220,415.5C 219.722,414.584 219.222,413.918 218.5,413.5 Z"/></g>
<g><path style="opacity:0.526" fill="#3b6368" d="M 233.5,418.5 C 233.56,417.957 233.893,417.624 234.5,417.5C 235.583,418.365 235.749,419.365 235,420.5C 234.722,419.584 234.222,418.918 233.5,418.5 Z"/></g>
<g><path style="opacity:0.891" fill="#3b6368" d="M 350.5,421.5 C 352.973,421.947 353.14,422.947 351,424.5C 350.517,423.552 350.351,422.552 350.5,421.5 Z"/></g>
<g><path style="opacity:1" fill="#3b6368" d="M 411.5,436.5 C 412.497,435.287 413.497,435.454 414.5,437C 413.423,437.47 412.423,437.303 411.5,436.5 Z"/></g>
<g><path style="opacity:1" fill="#3b6368" d="M 398.5,445.5 C 399.776,446.386 399.776,447.386 398.5,448.5C 397.913,447.767 397.913,446.767 398.5,445.5 Z"/></g>
<g><path style="opacity:0.931" fill="#3b6368" d="M 223.5,446.5 C 224.776,447.386 224.776,448.386 223.5,449.5C 222.913,448.767 222.913,447.767 223.5,446.5 Z"/></g>
<g><path style="opacity:1" fill="#3b6368" d="M 567.5,449.5 C 568.713,450.497 568.546,451.497 567,452.5C 566.53,451.423 566.697,450.423 567.5,449.5 Z"/></g>
<g><path style="opacity:1" fill="#3b6369" d="M 133.5,450.5 C 137.435,450.918 137.935,451.918 135,453.5C 133.961,452.756 133.461,451.756 133.5,450.5 Z"/></g>
<g><path style="opacity:1" fill="#3b6368" d="M 579.5,454.5 C 580.386,453.224 581.386,453.224 582.5,454.5C 581.767,455.087 580.767,455.087 579.5,454.5 Z"/></g>
<g><path style="opacity:0.435" fill="#3b6368" d="M 30.5,458.5 C 31.4971,457.287 32.4971,457.454 33.5,459C 32.4232,459.47 31.4232,459.303 30.5,458.5 Z"/></g>
<g><path style="opacity:0.023" fill="#3b6368" d="M 434.5,470.5 C 434.5,471.5 434.5,472.5 434.5,473.5C 432.015,472.74 432.015,471.74 434.5,470.5 Z"/></g>
<g><path style="opacity:0.028" fill="#3b6368" d="M 133.5,474.5 C 133.167,474.5 132.833,474.5 132.5,474.5C 132.281,473.325 132.614,472.325 133.5,471.5C 134.087,472.233 134.087,473.233 133.5,474.5 Z"/></g>
<g><path style="opacity:1" fill="#3b6368" d="M 597.5,481.5 C 599.225,481.843 599.725,482.843 599,484.5C 597.961,483.756 597.461,482.756 597.5,481.5 Z"/></g>
<g><path style="opacity:0.81" fill="#3b6368" d="M 76.5,486.5 C 77.2891,486.783 77.9558,487.283 78.5,488C 74.5657,490.221 73.899,489.721 76.5,486.5 Z"/></g>
<g><path style="opacity:1" fill="#3b6368" d="M 620.5,516.5 C 622.085,517.002 622.585,518.002 622,519.5C 620.961,518.756 620.461,517.756 620.5,516.5 Z"/></g>
<g><path style="opacity:1" fill="#3b6368" d="M 474.5,526.5 C 476.975,526.747 476.975,527.413 474.5,528.5C 473.537,528.03 473.537,527.363 474.5,526.5 Z"/></g>
<g><path style="opacity:1" fill="#3b6368" d="M 505.5,562.5 C 506.776,563.386 506.776,564.386 505.5,565.5C 504.913,564.767 504.913,563.767 505.5,562.5 Z"/></g>
<g><path style="opacity:1" fill="#3b6368" d="M 553.5,575.5 C 557.243,575.459 557.41,576.126 554,577.5C 553.536,576.906 553.369,576.239 553.5,575.5 Z"/></g>
<g><path style="opacity:1" fill="#3b6368" d="M 607.5,576.5 C 608.043,576.56 608.376,576.893 608.5,577.5C 607.635,578.583 606.635,578.749 605.5,578C 606.416,577.722 607.082,577.222 607.5,576.5 Z"/></g>
<g><path style="opacity:0.933" fill="#3b6368" d="M 456.5,600.5 C 457.043,600.56 457.376,600.893 457.5,601.5C 456.635,602.583 455.635,602.749 454.5,602C 455.416,601.722 456.082,601.222 456.5,600.5 Z"/></g>
<g><path style="opacity:1" fill="#3b6368" d="M 548.5,604.5 C 552.243,604.459 552.41,605.126 549,606.5C 548.536,605.906 548.369,605.239 548.5,604.5 Z"/></g>
</svg>
