<?xml version="1.0" encoding="UTF-8"?>
<!DOCTYPE svg PUBLIC "-//W3C//DTD SVG 1.1//EN" "http://www.w3.org/Graphics/SVG/1.1/DTD/svg11.dtd">
<svg xmlns="http://www.w3.org/2000/svg" version="1.1" width="700px" height="744px" style="shape-rendering:geometricPrecision; text-rendering:geometricPrecision; image-rendering:optimizeQuality; fill-rule:evenodd; clip-rule:evenodd" xmlns:xlink="http://www.w3.org/1999/xlink">
<g><path style="opacity:0.976" fill="#3c6468" d="M 344.5,-0.5 C 347.833,-0.5 351.167,-0.5 354.5,-0.5C 358.738,1.95936 363.072,4.45936 367.5,7C 478.082,60.4343 588.749,113.601 699.5,166.5C 699.5,182.5 699.5,198.5 699.5,214.5C 466.167,214.5 232.833,214.5 -0.5,214.5C -0.5,198.5 -0.5,182.5 -0.5,166.5C 110.251,113.601 220.918,60.4343 331.5,7C 335.928,4.45936 340.262,1.95936 344.5,-0.5 Z"/></g>
<g><path style="opacity:0.959" fill="#3c6468" d="M 27.5,255.5 C 242.167,255.5 456.833,255.5 671.5,255.5C 671.5,274.167 671.5,292.833 671.5,311.5C 652.83,311.333 634.164,311.5 615.5,312C 616.665,388.43 616.831,464.93 616,541.5C 596.905,542.164 577.739,542.497 558.5,542.5C 539.261,542.497 520.095,542.164 501,541.5C 500.169,464.93 500.335,388.43 501.5,312C 469.833,311.333 438.167,311.333 406.5,312C 407.833,388.667 407.833,465.333 406.5,542C 368.262,542.829 330.095,542.663 292,541.5C 291.169,464.93 291.335,388.43 292.5,312C 260.833,311.333 229.167,311.333 197.5,312C 198.665,388.43 198.831,464.93 198,541.5C 159.905,542.663 121.738,542.829 83.5,542C 82.1667,465.333 82.1667,388.667 83.5,312C 64.8363,311.5 46.1696,311.333 27.5,311.5C 27.5,292.833 27.5,274.167 27.5,255.5 Z"/></g>
<g><path style="opacity:0.946" fill="#3c6468" d="M 36.5,582.5 C 245.167,582.5 453.833,582.5 662.5,582.5C 662.5,602.833 662.5,623.167 662.5,643.5C 453.833,643.5 245.167,643.5 36.5,643.5C 36.5,623.167 36.5,602.833 36.5,582.5 Z"/></g>
<g><path style="opacity:0.979" fill="#3c6468" d="M -0.5,684.5 C 232.833,684.5 466.167,684.5 699.5,684.5C 699.5,704.167 699.5,723.833 699.5,743.5C 466.167,743.5 232.833,743.5 -0.5,743.5C -0.5,723.833 -0.5,704.167 -0.5,684.5 Z"/></g>
</svg>
