<?xml version="1.0" encoding="UTF-8"?>
<!DOCTYPE svg PUBLIC "-//W3C//DTD SVG 1.1//EN" "http://www.w3.org/Graphics/SVG/1.1/DTD/svg11.dtd">
<svg xmlns="http://www.w3.org/2000/svg" version="1.1" width="376px" height="376px" style="shape-rendering:geometricPrecision; text-rendering:geometricPrecision; image-rendering:optimizeQuality; fill-rule:evenodd; clip-rule:evenodd" xmlns:xlink="http://www.w3.org/1999/xlink">
<g><path style="opacity:0.97" fill="#fefffe" d="M 163.5,-0.5 C 179.5,-0.5 195.5,-0.5 211.5,-0.5C 211.5,7.83333 211.5,16.1667 211.5,24.5C 223.894,25.8522 235.894,28.8522 247.5,33.5C 252.415,26.672 257.081,19.672 261.5,12.5C 275.399,20.2762 289.065,28.2762 302.5,36.5C 297.87,43.5722 294.036,50.9055 291,58.5C 300.505,66.54 309.339,75.2067 317.5,84.5C 324.663,80.7529 331.663,76.7529 338.5,72.5C 347.078,85.5966 355.078,99.0966 362.5,113C 362.355,113.772 362.022,114.439 361.5,115C 354.596,118.943 347.929,123.11 341.5,127.5C 345.572,138.553 348.739,149.886 351,161.5C 358.894,163.449 367.061,164.116 375.5,163.5C 375.5,179.5 375.5,195.5 375.5,211.5C 367.061,210.884 358.894,211.551 351,213.5C 348.739,225.114 345.572,236.447 341.5,247.5C 347.929,251.89 354.596,256.057 361.5,260C 362.022,260.561 362.355,261.228 362.5,262C 355.078,275.903 347.078,289.403 338.5,302.5C 331.663,298.247 324.663,294.247 317.5,290.5C 309.204,299.628 300.371,308.295 291,316.5C 294.036,324.094 297.87,331.428 302.5,338.5C 289.065,346.724 275.399,354.724 261.5,362.5C 257.081,355.328 252.415,348.328 247.5,341.5C 235.892,346.149 223.892,349.149 211.5,350.5C 211.5,358.833 211.5,367.167 211.5,375.5C 195.5,375.5 179.5,375.5 163.5,375.5C 163.5,367.167 163.5,358.833 163.5,350.5C 151.258,349.148 139.425,346.148 128,341.5C 126.739,341.759 125.739,342.426 125,343.5C 121.655,350.202 117.821,356.535 113.5,362.5C 99.6691,354.752 86.0024,346.752 72.5,338.5C 76.6029,331.222 80.9363,324.056 85.5,317C 75.3319,308.997 65.9986,300.164 57.5,290.5C 50.5,294.5 43.5,298.5 36.5,302.5C 28.2477,288.998 20.2477,275.331 12.5,261.5C 18.9623,257.097 25.629,252.93 32.5,249C 33.0585,248.275 33.3918,247.442 33.5,246.5C 28.902,235.246 25.902,223.579 24.5,211.5C 16.1667,211.5 7.83333,211.5 -0.5,211.5C -0.5,195.5 -0.5,179.5 -0.5,163.5C 7.83333,163.5 16.1667,163.5 24.5,163.5C 25.8525,151.402 28.8525,139.735 33.5,128.5C 33.3918,127.558 33.0585,126.725 32.5,126C 25.629,122.07 18.9623,117.903 12.5,113.5C 20.2477,99.6691 28.2477,86.0024 36.5,72.5C 43.5722,77.1303 50.9055,80.9636 58.5,84C 66.5096,74.3241 75.5096,65.6574 85.5,58C 80.9363,50.9444 76.6029,43.7778 72.5,36.5C 86.0024,28.2477 99.6691,20.2477 113.5,12.5C 117.821,18.4649 121.655,24.7983 125,31.5C 125.739,32.5742 126.739,33.2409 128,33.5C 139.425,28.8521 151.258,25.8521 163.5,24.5C 163.5,16.1667 163.5,7.83333 163.5,-0.5 Z M 179.5,59.5 C 226.953,58.4792 264.787,76.8125 293,114.5C 322.247,161.749 322.913,209.416 295,257.5C 256.62,308.654 206.454,325.487 144.5,308C 90.6652,285.833 62.3319,245.666 59.5,187.5C 63.1114,124.787 94.7781,83.6199 154.5,64C 162.898,62.0466 171.231,60.5466 179.5,59.5 Z M 204.5,135.5 C 223.5,135.5 242.5,135.5 261.5,135.5C 261.5,154.5 261.5,173.5 261.5,192.5C 254.5,192.5 247.5,192.5 240.5,192.5C 240.666,185.492 240.5,178.492 240,171.5C 222.653,189.014 205.153,206.347 187.5,223.5C 179.5,216.167 171.833,208.5 164.5,200.5C 151.181,213.319 138.014,226.319 125,239.5C 119.985,234.652 115.152,229.652 110.5,224.5C 128.5,206.833 146.5,189.167 164.5,171.5C 171.5,178.5 178.5,185.5 185.5,192.5C 186.723,193.614 188.056,193.781 189.5,193C 201.027,181.473 212.527,169.973 224,158.5C 224.667,157.5 224.667,156.5 224,155.5C 217.59,156.478 211.09,156.811 204.5,156.5C 204.5,149.5 204.5,142.5 204.5,135.5 Z"/></g>
<g><path style="opacity:0.974" fill="#fefffe" d="M 176.5,80.5 C 228.341,78.4882 265.175,100.821 287,147.5C 302.819,194.351 292.985,234.851 257.5,269C 227.226,293.256 193.226,300.256 155.5,290C 103.834,269.965 79.0005,232.132 81,176.5C 90.3175,122.016 122.151,90.016 176.5,80.5 Z M 204.5,135.5 C 204.5,142.5 204.5,149.5 204.5,156.5C 211.09,156.811 217.59,156.478 224,155.5C 224.667,156.5 224.667,157.5 224,158.5C 212.527,169.973 201.027,181.473 189.5,193C 188.056,193.781 186.723,193.614 185.5,192.5C 178.5,185.5 171.5,178.5 164.5,171.5C 146.5,189.167 128.5,206.833 110.5,224.5C 115.152,229.652 119.985,234.652 125,239.5C 138.014,226.319 151.181,213.319 164.5,200.5C 171.833,208.5 179.5,216.167 187.5,223.5C 205.153,206.347 222.653,189.014 240,171.5C 240.5,178.492 240.666,185.492 240.5,192.5C 247.5,192.5 254.5,192.5 261.5,192.5C 261.5,173.5 261.5,154.5 261.5,135.5C 242.5,135.5 223.5,135.5 204.5,135.5 Z"/></g>
</svg>
