<?xml version="1.0" encoding="UTF-8"?>
<!DOCTYPE svg PUBLIC "-//W3C//DTD SVG 1.1//EN" "http://www.w3.org/Graphics/SVG/1.1/DTD/svg11.dtd">
<svg xmlns="http://www.w3.org/2000/svg" version="1.1" width="405px" height="431px" style="shape-rendering:geometricPrecision; text-rendering:geometricPrecision; image-rendering:optimizeQuality; fill-rule:evenodd; clip-rule:evenodd" xmlns:xlink="http://www.w3.org/1999/xlink">
<g><path style="opacity:0.951" fill="#fefffe" d="M 348.5,-0.5 C 349.167,-0.5 349.833,-0.5 350.5,-0.5C 365.116,20.7815 380.116,41.7815 395.5,62.5C 388.858,63.3309 382.191,63.8309 375.5,64C 374.333,64.5 373.5,65.3333 373,66.5C 372.5,89.4976 372.333,112.498 372.5,135.5C 357.167,135.5 341.833,135.5 326.5,135.5C 326.667,112.164 326.5,88.831 326,65.5C 325.5,65 325,64.5 324.5,64C 317.5,63.6667 310.5,63.3333 303.5,63C 318.715,41.9572 333.715,20.7905 348.5,-0.5 Z"/></g>
<g><path style="opacity:0.955" fill="#fefffe" d="M 250.5,47.5 C 266.303,68.415 281.636,89.7483 296.5,111.5C 290.673,111.444 284.673,111.61 278.5,112C 276.152,112.11 274.652,113.277 274,115.5C 273.5,138.164 273.333,160.831 273.5,183.5C 258.167,183.5 242.833,183.5 227.5,183.5C 227.667,160.498 227.5,137.498 227,114.5C 226.228,113.151 225.061,112.318 223.5,112C 217.327,111.61 211.327,111.444 205.5,111.5C 220.51,90.1376 235.51,68.8042 250.5,47.5 Z"/></g>
<g><path style="opacity:0.958" fill="#fefffe" d="M 150.5,96.5 C 151.552,96.3505 152.552,96.5172 153.5,97C 167.671,117.488 182.171,137.655 197,157.5C 197.483,158.448 197.649,159.448 197.5,160.5C 191.158,160.334 184.825,160.5 178.5,161C 177.333,161.5 176.5,162.333 176,163.5C 175.5,187.164 175.333,210.831 175.5,234.5C 160.167,234.5 144.833,234.5 129.5,234.5C 129.667,210.498 129.5,186.498 129,162.5C 128.25,161.874 127.416,161.374 126.5,161C 120.141,160.831 113.807,160.331 107.5,159.5C 120.864,140.319 134.364,121.319 148,102.5C 149.559,100.783 150.392,98.7834 150.5,96.5 Z"/></g>
<g><path style="opacity:0.948" fill="#fefffe" d="M 53.5,144.5 C 69.107,165.471 84.4404,186.804 99.5,208.5C 92.5236,209.331 85.5236,209.831 78.5,210C 78,210.5 77.5,211 77,211.5C 76.5,232.497 76.3334,253.497 76.5,274.5C 61.1667,274.5 45.8333,274.5 30.5,274.5C 30.6666,253.497 30.5,232.497 30,211.5C 29.5,211 29,210.5 28.5,210C 21.8417,209.5 15.175,209.334 8.5,209.5C 8.35055,208.448 8.51722,207.448 9,206.5C 24.088,185.98 38.9213,165.314 53.5,144.5 Z"/></g>
<g><path style="opacity:0.973" fill="#fefffe" d="M 317.5,163.5 C 339.167,163.5 360.833,163.5 382.5,163.5C 382.5,243.167 382.5,322.833 382.5,402.5C 360.833,402.5 339.167,402.5 317.5,402.5C 317.5,322.833 317.5,243.167 317.5,163.5 Z"/></g>
<g><path style="opacity:0.973" fill="#fefffe" d="M 218.5,212.5 C 240.167,212.5 261.833,212.5 283.5,212.5C 283.5,275.833 283.5,339.167 283.5,402.5C 261.833,402.5 240.167,402.5 218.5,402.5C 218.5,339.167 218.5,275.833 218.5,212.5 Z"/></g>
<g><path style="opacity:0.967" fill="#fefffe" d="M 120.5,263.5 C 142.167,263.5 163.833,263.5 185.5,263.5C 185.5,309.833 185.5,356.167 185.5,402.5C 163.833,402.5 142.167,402.5 120.5,402.5C 120.5,356.167 120.5,309.833 120.5,263.5 Z"/></g>
<g><path style="opacity:0.969" fill="#fefffe" d="M 21.5,303.5 C 43.1667,303.5 64.8333,303.5 86.5,303.5C 86.5,336.5 86.5,369.5 86.5,402.5C 64.8333,402.5 43.1667,402.5 21.5,402.5C 21.5,369.5 21.5,336.5 21.5,303.5 Z"/></g>
<g><path style="opacity:0.965" fill="#fefffe" d="M -0.5,411.5 C 134.5,411.5 269.5,411.5 404.5,411.5C 404.5,417.833 404.5,424.167 404.5,430.5C 269.5,430.5 134.5,430.5 -0.5,430.5C -0.5,424.167 -0.5,417.833 -0.5,411.5 Z"/></g>
</svg>
