<?xml version="1.0" encoding="UTF-8"?>
<!DOCTYPE svg PUBLIC "-//W3C//DTD SVG 1.1//EN" "http://www.w3.org/Graphics/SVG/1.1/DTD/svg11.dtd">
<svg xmlns="http://www.w3.org/2000/svg" version="1.1" width="342px" height="422px" style="shape-rendering:geometricPrecision; text-rendering:geometricPrecision; image-rendering:optimizeQuality; fill-rule:evenodd; clip-rule:evenodd" xmlns:xlink="http://www.w3.org/1999/xlink">
<g><path style="opacity:0.986" fill="#fefffe" d="M 165.5,-0.5 C 168.833,-0.5 172.167,-0.5 175.5,-0.5C 178.104,1.60004 180.604,3.93337 183,6.5C 216.812,60.9863 265.645,84.153 329.5,76C 335.149,77.1552 339.149,80.3218 341.5,85.5C 341.5,139.5 341.5,193.5 341.5,247.5C 337.708,273.707 329.208,298.374 316,321.5C 288.328,362.156 251.828,392.323 206.5,412C 196.863,415.713 187.197,418.88 177.5,421.5C 172.833,421.5 168.167,421.5 163.5,421.5C 101.464,403.597 53.631,367.263 20,312.5C 7.70246,287.8 0.869124,261.8 -0.5,234.5C -0.5,185.833 -0.5,137.167 -0.5,88.5C 0.924028,80.5842 5.75736,76.2509 14,75.5C 58.6262,83.1767 97.4596,71.6767 130.5,41C 141.299,30.2502 150.799,18.4169 159,5.5C 161.063,3.26589 163.229,1.26589 165.5,-0.5 Z M 165.5,152.5 C 171.932,151.347 177.432,153.014 182,157.5C 185.017,164.197 188.017,170.864 191,177.5C 193.281,183.57 197.448,187.737 203.5,190C 212.814,191.479 222.147,192.813 231.5,194C 238.229,195.729 241.563,200.062 241.5,207C 241.238,209.547 240.738,212.047 240,214.5C 231.536,222.155 223.536,230.155 216,238.5C 215.333,243.833 215.333,249.167 216,254.5C 217.49,261.114 218.656,267.781 219.5,274.5C 218.897,284.603 213.564,289.103 203.5,288C 194.271,283.771 185.271,279.104 176.5,274C 172.833,273.333 169.167,273.333 165.5,274C 155.689,279.905 145.356,284.738 134.5,288.5C 123.861,286.578 119.695,280.245 122,269.5C 124.512,259.954 125.845,250.288 126,240.5C 125,238.833 124,237.167 123,235.5C 116.329,228.496 109.329,221.829 102,215.5C 98.1628,208.363 98.9962,201.863 104.5,196C 106.087,195.138 107.754,194.471 109.5,194C 118.853,192.813 128.186,191.479 137.5,190C 139.5,189 141.5,188 143.5,187C 149.989,177.87 155.156,168.036 159,157.5C 161.326,155.934 163.492,154.268 165.5,152.5 Z"/></g>
</svg>
