<?xml version="1.0" encoding="UTF-8"?>
<!DOCTYPE svg PUBLIC "-//W3C//DTD SVG 1.1//EN" "http://www.w3.org/Graphics/SVG/1.1/DTD/svg11.dtd">
<svg xmlns="http://www.w3.org/2000/svg" version="1.1" width="700px" height="686px" style="shape-rendering:geometricPrecision; text-rendering:geometricPrecision; image-rendering:optimizeQuality; fill-rule:evenodd; clip-rule:evenodd" xmlns:xlink="http://www.w3.org/1999/xlink">
<g><path style="opacity:0.977" fill="#3c6468" d="M 24.5,-0.5 C 52.5,-0.5 80.5,-0.5 108.5,-0.5C 115.518,2.61568 122.518,6.11568 129.5,10C 147.857,21.8596 159.857,38.3596 165.5,59.5C 168.301,75.2617 171.134,90.9283 174,106.5C 174.654,105.304 175.154,105.304 175.5,106.5C 174.489,110.134 174.489,113.801 175.5,117.5C 328.167,117.333 480.834,117.5 633.5,118C 669.833,127.18 691.833,149.68 699.5,185.5C 699.5,194.167 699.5,202.833 699.5,211.5C 697.343,220.361 694.676,229.194 691.5,238C 677.585,273.845 663.752,309.679 650,345.5C 649.316,346.784 649.483,347.951 650.5,349C 648.261,352.252 646.428,355.752 645,359.5C 631.524,396.526 618.191,432.526 605,467.5C 594.871,490.962 577.704,506.795 553.5,515C 548.008,516.851 542.342,517.851 536.5,518C 432.5,518.667 328.5,518.667 224.5,518C 198.789,514.784 178.456,502.617 163.5,481.5C 155.482,467.607 150.982,452.607 150,436.5C 141.689,395.508 134.022,354.175 127,312.5C 126.346,313.696 125.846,313.696 125.5,312.5C 126.926,307.978 126.426,303.645 124,299.5C 120.268,277.176 116.601,254.843 113,232.5C 112.333,231.167 111.667,229.833 111,228.5C 107.685,204.703 103.352,181.036 98,157.5C 94.9081,133.049 90.4081,109.049 84.5,85.5C 85.4279,84.2322 85.5946,82.8989 85,81.5C 68.3722,81.6358 51.5388,81.4691 34.5,81C 17.4433,77.4348 5.7766,67.6014 -0.5,51.5C -0.5,43.1667 -0.5,34.8333 -0.5,26.5C 2.10276,21.3296 5.26943,16.3296 9,11.5C 13.8031,6.84321 18.9697,2.84321 24.5,-0.5 Z M 432.5,240.5 C 449.025,239.686 461.525,245.686 470,258.5C 476.831,273.378 475.831,287.711 467,301.5C 438.021,331.812 408.521,361.312 378.5,390C 364.348,397.562 350.348,397.229 336.5,389C 321.029,374.529 305.862,359.696 291,344.5C 281.862,333.476 278.862,320.81 282,306.5C 289.792,287.013 304.959,278.513 327.5,281C 331.943,282.721 336.276,284.721 340.5,287C 346.015,292.348 351.348,297.848 356.5,303.5C 375.263,286.239 393.596,268.405 411.5,250C 417.675,244.882 424.675,241.716 432.5,240.5 Z"/></g>
<g><path style="opacity:0.004" fill="#3c6468" d="M 163.5,481.5 C 162.833,482.167 162.833,482.167 163.5,481.5 Z"/></g>
<g><path style="opacity:0.944" fill="#3c6468" d="M 306.5,664.5 C 302.696,669.136 298.362,673.303 293.5,677C 288.059,679.954 282.725,682.787 277.5,685.5C 265.167,685.5 252.833,685.5 240.5,685.5C 213.556,673.893 198.89,654.06 196.5,626C 198.753,598.091 213.42,578.424 240.5,567C 277.9,559.448 303.734,573.281 318,608.5C 322.898,629.097 319.065,647.764 306.5,664.5 Z"/></g>
<g><path style="opacity:0.944" fill="#3c6468" d="M 554.5,648.5 C 546.452,665.616 533.785,677.949 516.5,685.5C 503.833,685.5 491.167,685.5 478.5,685.5C 446.207,671.335 432.374,646.668 437,611.5C 448.486,577.982 471.986,562.482 507.5,565C 532.956,570.457 549.456,585.623 557,610.5C 559.574,623.442 558.741,636.108 554.5,648.5 Z"/></g>
<g><path style="opacity:0.004" fill="#3c6468" d="M 554.5,648.5 C 555.833,649.167 555.833,649.167 554.5,648.5 Z"/></g>
<g><path style="opacity:0.004" fill="#3c6468" d="M 306.5,664.5 C 307.833,665.167 307.833,665.167 306.5,664.5 Z"/></g>
</svg>
