<?xml version="1.0" encoding="UTF-8"?>
<!DOCTYPE svg PUBLIC "-//W3C//DTD SVG 1.1//EN" "http://www.w3.org/Graphics/SVG/1.1/DTD/svg11.dtd">
<svg xmlns="http://www.w3.org/2000/svg" version="1.1" width="435px" height="419px" style="shape-rendering:geometricPrecision; text-rendering:geometricPrecision; image-rendering:optimizeQuality; fill-rule:evenodd; clip-rule:evenodd" xmlns:xlink="http://www.w3.org/1999/xlink">
<g><path style="opacity:0.878" fill="#fefffe" d="M 149.5,-0.5 C 155.5,-0.5 161.5,-0.5 167.5,-0.5C 172.915,2.80785 177.415,7.14118 181,12.5C 181.483,13.448 181.649,14.448 181.5,15.5C 201.836,15.3334 222.169,15.5 242.5,16C 244.949,16.7246 247.283,17.7246 249.5,19C 275.671,44.5044 301.171,70.671 326,97.5C 326.5,105.656 322.667,108.822 314.5,107C 290.141,81.6409 265.474,56.6409 240.5,32C 220.836,31.5 201.169,31.3334 181.5,31.5C 174.969,46.0781 163.969,50.9114 148.5,46C 141.5,43.4634 137.166,38.6301 135.5,31.5C 111.831,31.3334 88.1643,31.5 64.5,32C 62.6667,32.5 61.5,33.6667 61,35.5C 60.6667,42.5 60.3333,49.5 60,56.5C 55.8292,62.729 51.1626,63.0623 46,57.5C 44.9028,53.6156 44.4028,49.6156 44.5,45.5C 42.8321,32.3701 47.8321,22.8701 59.5,17C 84.7818,15.5376 110.115,15.0376 135.5,15.5C 135.929,11.9756 137.429,8.97561 140,6.5C 143.145,4.02355 146.312,1.69021 149.5,-0.5 Z"/></g>
<g><path style="opacity:0.931" fill="#fefffe" d="M -0.5,170.5 C -0.5,138.5 -0.5,106.5 -0.5,74.5C 1.25542,73.9278 2.92209,73.0945 4.5,72C 21.8333,71.3333 39.1667,71.3333 56.5,72C 63.5,78.3333 70.5,84.6667 77.5,91C 89.8333,91.3333 102.167,91.6667 114.5,92C 116.286,92.7845 117.786,93.9512 119,95.5C 119.667,120.5 119.667,145.5 119,170.5C 117.786,172.049 116.286,173.215 114.5,174C 78.1667,174.667 41.8333,174.667 5.5,174C 3.5952,172.579 1.5952,171.412 -0.5,170.5 Z M 39.5,116.5 C 52.8375,116.333 66.1708,116.5 79.5,117C 85.2304,119.605 85.8971,123.272 81.5,128C 67.1667,128.667 52.8333,128.667 38.5,128C 33.0134,123.752 33.3468,119.918 39.5,116.5 Z M 38.5,143.5 C 52.8372,143.333 67.1705,143.5 81.5,144C 85.854,148.564 85.1873,152.231 79.5,155C 66.1667,155.667 52.8333,155.667 39.5,155C 33.3659,151.494 33.0326,147.66 38.5,143.5 Z"/></g>
<g><path style="opacity:0.951" fill="#fefffe" d="M 325.5,122.5 C 353.227,121.706 380.56,124.539 407.5,131C 414.039,133.621 420.373,136.621 426.5,140C 433.917,146.107 434.251,152.44 427.5,159C 416.744,165.811 405.078,170.477 392.5,173C 354.763,179.266 317.097,178.933 279.5,172C 268.817,169.554 258.817,165.554 249.5,160C 240.989,151.529 241.989,144.195 252.5,138C 262.822,132.337 273.822,128.671 285.5,127C 298.925,124.934 312.258,123.434 325.5,122.5 Z"/></g>
<g><path style="opacity:0.922" fill="#fefffe" d="M 434.5,168.5 C 434.5,183.167 434.5,197.833 434.5,212.5C 429.202,218.928 422.535,223.762 414.5,227C 389.584,235.657 363.917,239.824 337.5,239.5C 308.715,240.113 281.049,234.946 254.5,224C 249.29,220.824 245.124,216.658 242,211.5C 241.333,197.5 241.333,183.5 242,169.5C 243.182,167.643 244.849,166.643 247,166.5C 265.282,175.947 284.782,181.113 305.5,182C 340.593,185.541 375.26,183.208 409.5,175C 415.318,172.59 420.985,169.923 426.5,167C 429.438,166.288 432.104,166.788 434.5,168.5 Z M 394.5,195.5 C 396.833,195.5 399.167,195.5 401.5,195.5C 402.545,200.727 402.545,205.894 401.5,211C 387.744,214.436 373.911,216.269 360,216.5C 358.86,211.276 358.693,206.109 359.5,201C 371.409,199.848 383.076,198.015 394.5,195.5 Z M 282.5,200.5 C 289.03,200.243 291.197,203.243 289,209.5C 283.962,212.911 280.462,211.745 278.5,206C 279.036,203.492 280.369,201.659 282.5,200.5 Z M 316.5,205.5 C 323.783,206.061 325.95,209.728 323,216.5C 315.027,219.836 311.694,217.169 313,208.5C 314.145,207.364 315.312,206.364 316.5,205.5 Z"/></g>
<g><path style="opacity:0.818" fill="#fefffe" d="M 49.5,186.5 C 53.1363,186.771 55.9696,188.437 58,191.5C 58.6667,203.167 58.6667,214.833 58,226.5C 52.5135,232.08 47.5135,231.747 43,225.5C 42.3333,214.5 42.3333,203.5 43,192.5C 44.4361,189.558 46.6028,187.558 49.5,186.5 Z"/></g>
<g><path style="opacity:0.922" fill="#fefffe" d="M 434.5,229.5 C 434.5,244.167 434.5,258.833 434.5,273.5C 429.279,279.525 422.946,284.358 415.5,288C 390.306,297.052 364.306,301.219 337.5,300.5C 313.205,300.969 289.539,297.469 266.5,290C 256.048,287.206 247.881,281.372 242,272.5C 241.333,258.5 241.333,244.5 242,230.5C 243.351,228.99 245.018,227.99 247,227.5C 268.128,238.407 290.628,243.907 314.5,244C 339.599,245.268 364.599,244.268 389.5,241C 403.56,239.091 416.727,234.591 429,227.5C 430.8,228.32 432.634,228.986 434.5,229.5 Z M 402.5,262.5 C 407.987,261.962 410.153,264.295 409,269.5C 408.097,270.701 406.931,271.535 405.5,272C 388.678,275.861 371.678,277.861 354.5,278C 351.626,274.949 351.959,272.282 355.5,270C 365.202,269.33 374.868,268.33 384.5,267C 390.828,266.307 396.828,264.807 402.5,262.5 Z M 278.5,263.5 C 283.651,263.814 286.151,266.481 286,271.5C 282.952,275.01 279.619,275.343 276,272.5C 274.927,268.9 275.76,265.9 278.5,263.5 Z M 314.5,267.5 C 319.414,266.782 322.414,268.782 323.5,273.5C 321.457,279.775 317.624,281.109 312,277.5C 309.712,273.318 310.545,269.984 314.5,267.5 Z"/></g>
<g><path style="opacity:0.934" fill="#fefffe" d="M -0.5,342.5 C -0.5,310.833 -0.5,279.167 -0.5,247.5C 0.961599,246.542 2.29493,245.376 3.5,244C 21.5,243.333 39.5,243.333 57.5,244C 63.8874,250.387 70.2208,256.721 76.5,263C 89.5,263.333 102.5,263.667 115.5,264C 116.667,265.167 117.833,266.333 119,267.5C 119.667,292.5 119.667,317.5 119,342.5C 118.097,343.701 116.931,344.535 115.5,345C 78.1667,345.667 40.8333,345.667 3.5,345C 2.26444,343.915 0.931107,343.082 -0.5,342.5 Z M 37.5,289.5 C 52.1705,289.333 66.8371,289.5 81.5,290C 85.4851,293.286 85.4851,296.619 81.5,300C 66.8333,300.667 52.1667,300.667 37.5,300C 33.5519,296.422 33.5519,292.922 37.5,289.5 Z M 37.5,315.5 C 52.1705,315.333 66.8371,315.5 81.5,316C 85.3673,319.418 85.3673,322.751 81.5,326C 66.8333,326.667 52.1667,326.667 37.5,326C 33.7135,322.589 33.7135,319.089 37.5,315.5 Z"/></g>
<g><path style="opacity:0.878" fill="#fefffe" d="M 167.5,418.5 C 161.5,418.5 155.5,418.5 149.5,418.5C 146.312,416.31 143.145,413.976 140,411.5C 137.429,409.024 135.929,406.024 135.5,402.5C 110.115,402.962 84.7818,402.462 59.5,401C 47.8321,395.13 42.8321,385.63 44.5,372.5C 42.4234,364.309 45.2568,358.976 53,356.5C 56.401,356.698 58.7343,358.365 60,361.5C 60.3333,368.5 60.6667,375.5 61,382.5C 61.5,384.333 62.6667,385.5 64.5,386C 88.1643,386.5 111.831,386.667 135.5,386.5C 137.166,379.37 141.5,374.537 148.5,372C 163.969,367.089 174.969,371.922 181.5,386.5C 201.169,386.667 220.836,386.5 240.5,386C 265.474,361.359 290.141,336.359 314.5,311C 321.268,308.215 325.268,310.382 326.5,317.5C 326.167,318.833 325.833,320.167 325.5,321.5C 300.683,347.817 275.349,373.651 249.5,399C 247.283,400.275 244.949,401.275 242.5,402C 222.169,402.5 201.836,402.667 181.5,402.5C 180.335,405.693 178.669,408.693 176.5,411.5C 173.612,414.095 170.612,416.428 167.5,418.5 Z"/></g>
</svg>
